<?xml version="1.0" encoding="UTF-8"?>
<svg version="1.1" xmlns="http://www.w3.org/2000/svg" width="831" height="339">
<path d="M0 0 C274.23 0 548.46 0 831 0 C831 111.87 831 223.74 831 339 C556.77 339 282.54 339 0 339 C0 227.13 0 115.26 0 0 Z " fill="#000000" transform="translate(0,0)"/>
<path d="M0 0 C1.67372392 0.54339897 3.3478875 1.08544535 5.02246094 1.6262207 C8.54598592 2.76514606 12.06744737 3.91018107 15.58789062 5.05859375 C20.9490593 6.80226778 26.32383113 8.50069369 31.703125 10.1875 C46.90550685 14.95711098 62.10356754 19.74066983 77.1875 24.875 C78.2197168 25.22071045 79.25193359 25.5664209 80.31542969 25.92260742 C88.22908167 28.6623132 93.72729416 31.21657851 98 38.8125 C98.9504861 41.81276665 99.12943166 44.53833275 99.14044189 47.67663574 C99.14615204 48.65451553 99.15186218 49.63239532 99.15774536 50.63990784 C99.15942215 52.24031166 99.15942215 52.24031166 99.16113281 53.87304688 C99.16609772 55.00218002 99.17106262 56.13131317 99.17617798 57.29466248 C99.19080941 61.04019785 99.19760742 64.7856907 99.203125 68.53125 C99.20888079 71.14562989 99.21463847 73.76000977 99.22039795 76.37438965 C99.22997285 81.1665488 99.23586562 85.95869887 99.2388947 90.75086641 C99.24334713 97.75365482 99.26075869 104.75624527 99.2898953 111.7589736 C99.31437624 117.85967687 99.32185191 123.9603005 99.32357025 130.06105042 C99.32657001 132.63465952 99.33450624 135.20826834 99.34775543 137.78184509 C99.57351326 185.05423741 85.97444028 224.89789614 52.625 259.140625 C51.19485783 260.61202127 49.78339376 262.10152328 48.375 263.59375 C33.427291 279.13150015 14.88816369 290.68562864 -4 300.8125 C-4.64984863 301.16538086 -5.29969727 301.51826172 -5.96923828 301.88183594 C-7.84661839 302.89538505 -9.73312945 303.88880946 -11.625 304.875 C-13.25308594 305.72771484 -13.25308594 305.72771484 -14.9140625 306.59765625 C-18.24480101 307.90887103 -20.4556263 308.2046646 -24 307.8125 C-24.99 307.1525 -25.98 306.4925 -27 305.8125 C-27.36914349 303.6767025 -27.36914349 303.6767025 -27.36076355 300.97836304 C-27.36488754 299.95750107 -27.36901154 298.9366391 -27.3732605 297.88484192 C-27.36247467 296.76059311 -27.35168884 295.6363443 -27.34057617 294.47802734 C-27.34101425 293.29755325 -27.34145233 292.11707916 -27.34190369 290.90083313 C-27.34016871 287.65916507 -27.32509794 284.41788286 -27.30418181 281.17629194 C-27.28545926 277.79036598 -27.28366808 274.40443287 -27.28010559 271.01846313 C-27.27077206 264.6046246 -27.24614075 258.19093902 -27.21605712 251.77716792 C-27.17926861 243.76032879 -27.16282121 235.74346494 -27.14648438 227.7265625 C-27.11724392 213.42175577 -27.0571514 199.11728293 -27 184.8125 C-27.33 224.4125 -27.66 264.0125 -28 304.8125 C-32.74074917 303.86435017 -36.30463977 302.36341118 -40.5 300.125 C-41.59030518 299.54528442 -41.59030518 299.54528442 -42.70263672 298.95385742 C-49.05004841 295.49035811 -55.10553322 291.62684248 -61.125 287.625 C-62.43887695 286.75258667 -62.43887695 286.75258667 -63.77929688 285.86254883 C-66.2197714 284.21250855 -68.63562037 282.57036895 -71 280.8125 C-71.57513305 280.42542657 -72.15026609 280.03835314 -72.74282742 279.63955021 C-77.60970107 276.03972966 -77.60970107 276.03972966 -78.6361084 272.81236362 C-78.86024453 270.44091623 -78.86693174 268.15887468 -78.79467773 265.77783203 C-78.79569992 264.88938095 -78.79672211 264.00092987 -78.79777527 263.08555603 C-78.79291638 260.16257067 -78.73855798 257.24274876 -78.68359375 254.3203125 C-78.67053146 252.28866278 -78.66057027 250.25699096 -78.65357971 248.22531128 C-78.62690398 242.88837373 -78.5581849 237.55277834 -78.48065186 232.21636963 C-78.39631449 225.80804175 -78.36428875 219.39926404 -78.3234787 212.99053955 C-78.25568929 203.26359408 -78.12154041 193.53959102 -78 183.8125 C-78.33 213.1825 -78.66 242.5525 -79 272.8125 C-83.0241761 270.80041195 -85.88797629 268.40920387 -89.125 265.375 C-89.98822876 264.56712036 -89.98822876 264.56712036 -90.86889648 263.74291992 C-121.0146951 235.22798016 -140.84928732 196.17287263 -142.28903198 154.39877319 C-142.445283 147.27000067 -142.44462316 140.14186521 -142.43359375 133.01171875 C-142.43816656 130.39288703 -142.44347536 127.7740565 -142.44947815 125.15522766 C-142.45941103 119.71192385 -142.45629988 114.26873966 -142.44604492 108.82543945 C-142.43449098 102.55443755 -142.44879463 96.28385971 -142.4754414 90.01291341 C-142.50030847 83.9297145 -142.50277343 77.84671082 -142.49632454 71.76346779 C-142.49617157 69.19389955 -142.50219574 66.624323 -142.51461601 64.05478477 C-142.52951367 60.47329306 -142.51886207 56.89274179 -142.50170898 53.3112793 C-142.51137695 52.26029556 -142.52104492 51.20931183 -142.53100586 50.1264801 C-142.45599496 42.63668248 -141.06899307 37.0711009 -135.85424805 31.53417969 C-131.86728245 29.12924586 -127.7408733 27.72248545 -123.33203125 26.265625 C-121.88008362 25.77271721 -121.88008362 25.77271721 -120.39880371 25.26985168 C-117.20687379 24.1899988 -114.00996166 23.12585093 -110.8125 22.0625 C-108.58798024 21.31483133 -106.36361716 20.56669638 -104.1394043 19.81811523 C-83.77745632 12.98790539 -63.33356202 6.40755459 -42.86328125 -0.08984375 C-41.96436157 -0.37554733 -41.06544189 -0.66125092 -40.13928223 -0.95561218 C-24.79983662 -5.80664297 -15.1674651 -5.01935961 0 0 Z " fill="#003C24" transform="translate(157,27.1875)"/>
<path d="M0 0 C10.89 0 21.78 0 33 0 C42.02311198 22.55777995 51.04622396 45.1155599 60.06933594 67.67333984 C60.4806073 68.70127655 60.89187866 69.72921326 61.31561279 70.78829956 C62.11548288 72.7884567 62.91469538 74.78887696 63.7131958 76.7895813 C65.43528365 81.1025303 67.16388875 85.41212409 68.92578125 89.70898438 C69.21126831 90.40916687 69.49675537 91.10934937 69.79089355 91.83074951 C70.53063045 93.64230071 71.27580529 95.45162883 72.02148438 97.26074219 C73 100 73 100 73 103 C73.66 103 74.32 103 75 103 C75.17187836 102.39586273 75.34375671 101.79172546 75.52084351 101.16928101 C77.33789025 94.93145722 79.47537965 88.89599684 81.8515625 82.8515625 C82.22342178 81.89619095 82.59528107 80.9408194 82.97840881 79.95649719 C84.19045001 76.84462485 85.40774046 73.73483434 86.625 70.625 C87.46893967 68.46053694 88.31243982 66.29590245 89.15551758 64.13110352 C90.45643979 60.79089784 91.75766191 57.45081225 93.06031799 54.11128235 C97.24930607 43.37154189 101.40681979 32.61974517 105.55755615 21.86517334 C106.99864292 18.13133176 108.44062059 14.39783451 109.88259888 10.66433716 C111.2553347 7.10966189 112.62762691 3.55481532 114 0 C124.89 0 135.78 0 147 0 C147 48.84 147 97.68 147 148 C139.08 148 131.16 148 123 148 C122.67 114.01 122.34 80.02 122 45 C103.33160991 88.42881647 103.33160991 88.42881647 85 132 C77.74 132 70.48 132 63 132 C58.49986243 122.99972487 58.49986243 122.99972487 57.03979492 119.6081543 C56.70760452 118.83962128 56.37541412 118.07108826 56.03315735 117.27926636 C55.68577011 116.46910065 55.33838287 115.65893494 54.98046875 114.82421875 C54.60460129 113.95266144 54.22873383 113.08110413 53.84147644 112.18313599 C52.62129582 109.35219425 51.40441045 106.51984878 50.1875 103.6875 C49.3428106 101.7267205 48.49791927 99.76602798 47.65283203 97.80541992 C43.56966609 88.32732873 39.50190887 78.84272252 35.44921875 69.3515625 C35.09919296 68.5324086 34.74916718 67.7132547 34.38853455 66.86927795 C32.74159223 63.01477097 31.09711906 59.15925383 29.45776367 55.30151367 C28.87557088 53.93665096 28.29330032 52.57182142 27.7109375 51.20703125 C27.20868652 50.0260083 26.70643555 48.84498535 26.18896484 47.62817383 C25.24280287 45.12520443 25.24280287 45.12520443 24 44 C24 78.32 24 112.64 24 148 C16.08 148 8.16 148 0 148 C0 99.16 0 50.32 0 0 Z " fill="#49C387" transform="translate(654,184)"/>
<path d="M0 0 C2.3766258 1.93516605 4.48517833 3.97224675 6.53515625 6.25 C7.21578125 6.9925 7.89640625 7.735 8.59765625 8.5 C14.01632836 16.19101847 15.53515625 22.90939765 15.53515625 32.25 C7.61515625 32.25 -0.30484375 32.25 -8.46484375 32.25 C-9.78484375 28.95 -11.10484375 25.65 -12.46484375 22.25 C-15.99095758 16.2425468 -21.84306973 14.19481062 -28.33984375 12.5 C-39.27457292 11.62522167 -49.62486405 11.91928513 -58.46484375 19.25 C-62.59450401 24.89123448 -62.17004091 30.52088979 -61.46484375 37.25 C-59.26537516 43.29853861 -54.52561234 45.03129955 -49.04003906 47.71850586 C-42.71205934 50.42920081 -36.11248631 52.09056726 -29.46484375 53.8125 C4.47829816 62.69232523 4.47829816 62.69232523 13.53515625 76.25 C19.74178268 87.44977782 20.33968711 100.8868401 16.91015625 113.125 C13.36640915 123.31172946 6.22872223 131.48367726 -3.20703125 136.79296875 C-13.58040337 141.69230378 -22.64003137 142.64047476 -34.02734375 142.625 C-34.69714264 142.62445618 -35.36694153 142.62391235 -36.05703735 142.62335205 C-52.37870874 142.56224874 -67.47301863 140.02132316 -79.83984375 128.4375 C-86.89067978 120.7810707 -91.46484375 110.89510008 -91.46484375 100.25 C-83.21484375 100.25 -74.96484375 100.25 -66.46484375 100.25 C-65.14484375 103.55 -63.82484375 106.85 -62.46484375 110.25 C-57.89837695 116.25164208 -50.80718416 119.15757739 -43.46484375 120.25 C-27.39058047 121.20078557 -27.39058047 121.20078557 -13.02734375 114.875 C-8.09877567 109.82622294 -6.78960805 105.75745449 -6.15234375 98.875 C-6.52709353 94.52790258 -7.69750422 91.55947328 -10.46484375 88.25 C-17.97032077 82.34735503 -27.0178885 80.63701619 -36.08984375 78.3125 C-72.15621969 69.02738966 -72.15621969 69.02738966 -82.17578125 53.8515625 C-85.75534881 46.62734432 -87.02304753 39.973306 -86.96484375 31.9375 C-86.95912354 31.01686768 -86.95340332 30.09623535 -86.94750977 29.14770508 C-86.67835689 18.85555268 -83.6982583 10.48204037 -76.45703125 2.9921875 C-57.29576893 -13.76452425 -20.74379632 -14.58904357 0 0 Z " fill="#49C387" transform="translate(395.46484375,191.75)"/>
<path d="M0 0 C30.69 0 61.38 0 93 0 C93 6.93 93 13.86 93 21 C70.56 21 48.12 21 25 21 C25 35.19 25 49.38 25 64 C44.14 64 63.28 64 83 64 C83 70.93 83 77.86 83 85 C63.86 85 44.72 85 25 85 C25 98.86 25 112.72 25 127 C47.77 127 70.54 127 94 127 C94 133.93 94 140.86 94 148 C62.98 148 31.96 148 0 148 C0 99.16 0 50.32 0 0 Z " fill="#4AC588" transform="translate(522,184)"/>
<path d="M0 0 C44.6 0 44.6 0 53 7 C58.19410468 12.25213937 60.28597656 16.93014384 60.3125 24.3125 C60.16948239 30.98916415 59.80083991 36.11629501 55.01953125 41.0390625 C53.06476138 42.77586688 51.08120228 44.41808853 49 46 C49.58652344 46.43828125 50.17304688 46.8765625 50.77734375 47.328125 C51.51082031 47.87984375 52.24429688 48.4315625 53 49 C53.59941406 49.44859375 54.19882812 49.8971875 54.81640625 50.359375 C58.92446353 53.63111637 61.93096099 56.7025299 63 62 C63.90146031 70.50753164 63.27632601 78.45921103 59 86 C52.83226537 93.60176774 45.29671139 95.4505481 36 97 C24.12 97 12.24 97 0 97 C0 64.99 0 32.98 0 0 Z " fill="#4BC68A" transform="translate(309,57)"/>
<path d="M0 0 C8.58 0 17.16 0 26 0 C26 48.84 26 97.68 26 148 C17.42 148 8.84 148 0 148 C0 99.16 0 50.32 0 0 Z " fill="#48C286" transform="translate(452,184)"/>
<path d="M0 0 C4.29 0 8.58 0 13 0 C19.56721905 11.49778006 26.07622636 23.00341783 32.17138672 34.75927734 C36.16886417 42.42178482 40.42971992 49.93070753 44.7109375 57.4375 C45.23945312 58.36433594 45.76796875 59.29117188 46.3125 60.24609375 C46.78300781 61.06779053 47.25351562 61.8894873 47.73828125 62.73608398 C48.88429275 64.79238519 49.94722111 66.89444221 51 69 C51.33 46.23 51.66 23.46 52 0 C56.62 0 61.24 0 66 0 C66 32.01 66 64.02 66 97 C61.05 97 56.1 97 51 97 C43.22939702 82.86618648 35.60230988 68.66105489 28.05297852 54.40820312 C27.530168 53.42147362 27.530168 53.42147362 26.99679565 52.41481018 C26.05223187 50.63157484 25.10847997 48.84790951 24.16479492 47.06420898 C21.12946781 41.36565363 18.06103841 35.68478563 15 30 C14.67 52.11 14.34 74.22 14 97 C9.38 97 4.76 97 0 97 C0 64.99 0 32.98 0 0 Z " fill="#4BC68A" transform="translate(479,57)"/>
<path d="M0 0 C5.94 0 11.88 0 18 0 C34.35700207 52.69682777 34.35700207 52.69682777 42.0625 78.3125 C42.31938599 79.16320068 42.57627197 80.01390137 42.84094238 80.89038086 C43.5545322 83.25545442 44.26432543 85.62162813 44.97265625 87.98828125 C45.18118729 88.6783577 45.38971832 89.36843414 45.60456848 90.079422 C47 94.76958145 47 94.76958145 47 97 C42.38 97 37.76 97 33 97 C30 90 30 90 26 74 C14.78 74 3.56 74 -8 74 C-8.99 78.95 -8.99 78.95 -10 84 C-11.22544184 88.37402233 -12.6184114 92.67102239 -14 97 C-18.62 97 -23.24 97 -28 97 C-27.40716101 92.19213961 -26.45417758 87.7320115 -25.05395508 83.09692383 C-24.85862183 82.44527756 -24.66328857 81.79363129 -24.46203613 81.12223816 C-23.81931223 78.98236396 -23.16946724 76.84472487 -22.51953125 74.70703125 C-22.06406366 73.19566537 -21.60904997 71.68416263 -21.15446472 70.17253113 C-19.95619324 66.19225613 -18.75189254 62.21383075 -17.54626465 58.23577881 C-16.3417583 54.25786201 -15.14273622 50.2782939 -13.94335938 46.29882812 C-12.11418735 40.23176741 -10.28218191 34.16557114 -8.44775391 28.10009766 C-5.61659275 18.73795149 -2.80575103 9.36979376 0 0 Z " fill="#4AC589" transform="translate(414,57)"/>
<path d="M0 0 C5.61 0 11.22 0 17 0 C20.00167576 7.58458601 22.31644984 15.37034034 24.67578125 23.171875 C25.12772813 24.65959144 25.57989619 26.1472407 26.03227234 27.63482666 C27.22085734 31.5456242 28.40627479 35.45737498 29.59106445 39.36932373 C30.77675324 43.28199643 31.96573086 47.19366934 33.15429688 51.10546875 C37.79822505 66.3950377 42.4261041 81.68930962 47 97 C42.05 97 37.1 97 32 97 C29.69 89.74 27.38 82.48 25 75 C14.11 74.67 3.22 74.34 -8 74 C-8.99 78.95 -8.99 78.95 -10 84 C-11.22544184 88.37402233 -12.6184114 92.67102239 -14 97 C-18.62 97 -23.24 97 -28 97 C-26.51144502 88.76137372 -24.30172205 80.84369189 -21.89453125 72.83203125 C-21.48780309 71.46663787 -21.08145457 70.10113134 -20.67546082 68.73551941 C-19.60864513 65.15115056 -18.53638149 61.56843396 -17.4630127 57.98602295 C-16.39558495 54.41948425 -15.33391079 50.85123411 -14.27148438 47.28320312 C-9.56993301 31.50519343 -4.81629412 15.74340388 0 0 Z " fill="#4AC589" transform="translate(758,57)"/>
<path d="M0 0 C4.60680859 3.25186488 7.72072178 6.74958167 9.1875 12.25 C9.97095013 19.11112384 9.24901051 24.55862767 5.1875 30.25 C2.24939973 33.11464776 0.13347955 34.38890701 -3.8125 35.25 C-3.79584541 36.21267288 -3.79584541 36.21267288 -3.77885437 37.1947937 C-3.66771299 43.91129555 -3.59260628 50.62753359 -3.5378418 57.34472656 C-3.51279207 59.84711326 -3.47874258 62.34942748 -3.43530273 64.8515625 C-3.37423339 68.46112007 -3.34619326 72.06970519 -3.32421875 75.6796875 C-3.29841232 76.78738495 -3.2726059 77.8950824 -3.24601746 79.03634644 C-3.24182917 90.79581273 -8.31422679 98.29365727 -15.8125 106.9375 C-17.02300531 108.35622257 -18.23137132 109.77677351 -19.4375 111.19921875 C-19.96601562 111.81112061 -20.49453125 112.42302246 -21.0390625 113.0534668 C-21.62429687 113.77832275 -22.20953125 114.50317871 -22.8125 115.25 C-24.0844648 116.75323318 -24.0844648 116.75323318 -25.38212585 118.28683472 C-28.49733078 122.69667271 -28.52401971 126.58755619 -28.47192383 131.85717773 C-28.48240753 132.79454269 -28.49289124 133.73190765 -28.50369263 134.69767761 C-28.5323499 137.7766569 -28.5261619 140.85450548 -28.51953125 143.93359375 C-28.53265189 146.07594709 -28.54795723 148.21828807 -28.56535339 150.36061096 C-28.60517304 155.98467547 -28.61539194 161.60841613 -28.61938477 167.23260498 C-28.62872183 172.97743535 -28.66613906 178.7220759 -28.70117188 184.46679688 C-28.76571701 195.72785574 -28.79898238 206.98877234 -28.8125 218.25 C-30.83918684 216.94712989 -32.82700088 215.61317755 -34.8125 214.25 C-35.91056473 213.52165955 -37.00862946 212.79331909 -38.13996887 212.04290771 C-41.78908982 208.22942246 -41.65939448 205.66200764 -41.57299805 200.56347656 C-41.58190567 199.69938171 -41.59081329 198.83528687 -41.59999084 197.94500732 C-41.62127286 195.09277453 -41.59896061 192.24280237 -41.57421875 189.390625 C-41.57572175 187.40150726 -41.57915319 185.41239013 -41.58442688 183.42327881 C-41.58875923 179.253566 -41.57191967 175.08462624 -41.53979492 170.91503906 C-41.50011723 165.58747178 -41.50927366 160.26136263 -41.53402996 154.93375015 C-41.54826362 150.82424118 -41.53808452 146.71506848 -41.52051735 142.60558319 C-41.51469191 140.64252273 -41.51593369 138.67942749 -41.52454185 136.71637726 C-41.5816586 117.17923695 -41.5816586 117.17923695 -35.8125 110.25 C-35.25755859 109.47003662 -34.70261719 108.69007324 -34.13085938 107.88647461 C-33.40092773 107.02807983 -33.40092773 107.02807983 -32.65625 106.15234375 C-32.10839844 105.49556641 -31.56054688 104.83878906 -30.99609375 104.16210938 C-30.44050781 103.51048828 -29.88492188 102.85886719 -29.3125 102.1875 C-28.19336368 100.86712687 -27.07874047 99.5429147 -25.96875 98.21484375 C-25.23881836 97.35814087 -25.23881836 97.35814087 -24.49414062 96.48413086 C-23.93919922 95.74686768 -23.38425781 95.00960449 -22.8125 94.25 C-22.3884639 93.71891632 -21.9644278 93.18783264 -21.52754211 92.64065552 C-17.24608496 86.71859628 -17.07928962 81.46379301 -17.10546875 74.3125 C-17.09034744 73.19182129 -17.07522614 72.07114258 -17.05964661 70.91650391 C-17.01689065 67.36079597 -17.00794274 63.80593901 -17 60.25 C-16.97684648 57.82940465 -16.95147938 55.4088294 -16.92382812 52.98828125 C-16.86109517 47.07551265 -16.82606518 41.16307495 -16.8125 35.25 C-17.58207031 34.97929688 -18.35164063 34.70859375 -19.14453125 34.4296875 C-23.87399522 32.33847503 -26.88802645 27.96751481 -28.8125 23.25 C-29.73698887 16.43797674 -29.51463259 10.58245354 -25.375 4.9375 C-18.32033439 -2.68153886 -9.50206561 -5.05821165 0 0 Z " fill="#DDEECC" transform="translate(119.8125,92.75)"/>
<path d="M0 0 C5.77976256 4.70770983 8.03875357 11.17439108 9.625 18.3125 C9.625 20.2925 9.625 22.2725 9.625 24.3125 C5.005 24.3125 0.385 24.3125 -4.375 24.3125 C-4.6225 22.930625 -4.87 21.54875 -5.125 20.125 C-6.19648859 15.32593844 -7.82430827 12.03118038 -12.015625 9.20703125 C-15.39447344 7.92597779 -18.68581919 7.94403978 -22.25 7.9375 C-23.29220703 7.90076172 -23.29220703 7.90076172 -24.35546875 7.86328125 C-29.53877147 7.83399705 -32.53054703 8.84912983 -36.375 12.3125 C-39.61964811 18.20958042 -39.81531727 23.3148332 -39.7734375 29.9609375 C-39.77630768 30.97290192 -39.77917786 31.98486633 -39.78213501 33.02749634 C-39.7841694 35.16058921 -39.77868343 37.29370101 -39.76611328 39.42675781 C-39.75008474 42.67035232 -39.76596653 45.91269451 -39.78515625 49.15625 C-39.78317306 51.23698189 -39.77932781 53.317713 -39.7734375 55.3984375 C-39.77951019 56.35809418 -39.78558289 57.31775085 -39.7918396 58.30648804 C-39.72987392 64.3199306 -39.09632234 69.86541714 -36.375 75.3125 C-31.10259269 80.11624888 -25.70273821 79.75374612 -18.77734375 79.74609375 C-14.17363946 79.15939894 -10.70474634 77.77980631 -7.5625 74.3125 C-5.07249463 70.11880675 -5.06497232 65.86402961 -4.8125 61.125 C-4.74772461 60.00061523 -4.74772461 60.00061523 -4.68164062 58.85351562 C-4.57577315 57.00671625 -4.4749024 55.15963166 -4.375 53.3125 C-8.995 53.3125 -13.615 53.3125 -18.375 53.3125 C-18.375 49.6825 -18.375 46.0525 -18.375 42.3125 C-9.135 42.3125 0.105 42.3125 9.625 42.3125 C9.74076927 46.40301415 9.83998362 50.48927731 9.8996582 54.58056641 C9.92456805 55.96748264 9.95851002 57.35427087 10.00219727 58.74072266 C10.30833322 68.71715318 9.5077438 76.5780916 2.83618164 84.41333008 C-3.71207001 91.20262167 -13.19955922 93.43625838 -22.375 93.8125 C-31.05804566 93.46747832 -40.55194805 91.39057554 -46.9453125 85.15625 C-51.80332566 78.89127128 -54.46601146 72.03527009 -54.55200195 64.15185547 C-54.56483719 63.12333466 -54.57767242 62.09481384 -54.59089661 61.03512573 C-54.60197701 59.37418381 -54.60197701 59.37418381 -54.61328125 57.6796875 C-54.621353 56.53267365 -54.62942474 55.38565979 -54.63774109 54.20388794 C-54.65156992 51.77461248 -54.66229744 49.3453177 -54.67016602 46.91601562 C-54.68733833 43.22227534 -54.7312324 39.52943965 -54.77539062 35.8359375 C-54.78552169 33.47136072 -54.7940365 31.10677636 -54.80078125 28.7421875 C-54.81828934 27.64703827 -54.83579742 26.55188904 -54.85383606 25.42355347 C-54.82863927 16.40240907 -52.96115433 7.89865433 -46.375 1.3125 C-33.72952939 -8.6862442 -13.31898544 -8.93613831 0 0 Z " fill="#4BC68B" transform="translate(622.375,61.6875)"/>
<path d="M0 0 C2.875 0.875 2.875 0.875 4.875 2.875 C5.41985095 7.57330547 5.45997635 12.27601142 5.52026367 17.00292969 C5.54817478 18.57046894 5.59568239 20.13779514 5.66381836 21.70410156 C6.29771921 36.32876767 6.29771921 36.32876767 1.33203125 41.96875 C-0.46251375 43.63097587 -2.285515 45.26264722 -4.125 46.875 C-6.0105393 48.73199591 -7.86494649 50.61748865 -9.72090149 52.50402832 C-13.15858598 55.99147663 -16.64568765 59.42916557 -20.125 62.875 C-22.94035925 65.66380523 -25.75240155 68.45589509 -28.5625 71.25 C-29.20719238 71.88639404 -29.85188477 72.52278809 -30.51611328 73.1784668 C-31.10763184 73.76668213 -31.69915039 74.35489746 -32.30859375 74.9609375 C-32.82993896 75.4770459 -33.35128418 75.9931543 -33.88842773 76.52490234 C-36.28397401 79.14037538 -36.25769932 81.16110879 -36.28321838 84.59524536 C-36.29790161 86.08867462 -36.29790161 86.08867462 -36.31288147 87.61227417 C-36.31863693 88.70847076 -36.3243924 89.80466736 -36.33032227 90.93408203 C-36.34517166 92.6609021 -36.34517166 92.6609021 -36.36032104 94.42260742 C-36.39200733 98.24265458 -36.41672165 102.0627142 -36.44140625 105.8828125 C-36.46196962 108.52554657 -36.48296592 111.16827731 -36.50437927 113.81100464 C-36.55432409 120.06537258 -36.59925626 126.31976616 -36.64240164 132.5741843 C-36.69175874 139.69383547 -36.74668252 146.81344026 -36.80208123 153.93304658 C-36.91592872 168.58032048 -37.02276173 183.22764053 -37.125 197.875 C-40.66382835 199.80110096 -43.0624976 200.22074488 -47.125 199.875 C-48.115 199.215 -49.105 198.555 -50.125 197.875 C-50.50811005 195.77716637 -50.50811005 195.77716637 -50.51940918 193.13265991 C-50.53075897 192.13177338 -50.54210876 191.13088684 -50.55380249 190.09967041 C-50.55087189 188.9973407 -50.54794128 187.89501099 -50.54492188 186.75927734 C-50.55339142 185.60140717 -50.56186096 184.44353699 -50.57058716 183.25057983 C-50.59407883 179.40392207 -50.59497604 175.55766173 -50.59375 171.7109375 C-50.59905372 169.71670115 -50.60436338 167.72246467 -50.61061716 165.72823107 C-50.62987546 159.45013121 -50.63272808 153.17216428 -50.62597656 146.89404297 C-50.61935071 140.42853105 -50.64213488 133.96359181 -50.67929029 127.49819601 C-50.7100551 121.94220463 -50.72133953 116.38639669 -50.71745348 110.83032191 C-50.71539095 107.51442057 -50.72303525 104.19906157 -50.74534607 100.88322067 C-50.76752636 97.17738585 -50.75783449 93.47292074 -50.74023438 89.76708984 C-50.75349762 88.67690552 -50.76676086 87.58672119 -50.78042603 86.46350098 C-50.70447423 79.566764 -49.44585842 75.27531567 -45.125 69.875 C-44.48240234 69.04468262 -43.83980469 68.21436523 -43.17773438 67.35888672 C-38.77272128 62.45869393 -34.12886347 58.06175765 -29.15625 53.7578125 C-13.91504562 41.26857775 -13.91504562 41.26857775 -6.21875 23.9609375 C-5.90443972 18.05714283 -6.28430045 12.29015173 -7.2265625 6.45507812 C-7.125 3.875 -7.125 3.875 -5.34375 1.52148438 C-3.125 -0.125 -3.125 -0.125 0 0 Z " fill="#DDEFCC" transform="translate(180.125,135.125)"/>
<path d="M0 0 C4.62 0 9.24 0 14 0 C14 28.05 14 56.1 14 85 C28.19 85 42.38 85 57 85 C57 88.96 57 92.92 57 97 C38.19 97 19.38 97 0 97 C0 64.99 0 32.98 0 0 Z " fill="#4BC78B" transform="translate(657,57)"/>
<path d="M0 0 C5.1058117 2.27938022 8.77036351 6.46588493 12 11 C13.80388448 16.41165345 13.54604246 21.36187263 11.75 26.75 C8.34603591 33.07164759 4.88682485 36.78722294 -2 39 C-7.86031508 39.92090666 -12.98886668 39.35216497 -18.17578125 36.40625 C-23.41647055 32.36631821 -26.41845457 27.41974529 -27.2734375 20.921875 C-27.56560596 14.67396486 -26.01000944 10.7807645 -22 6 C-15.20977811 -0.69060983 -9.29666069 -0.74288385 0 0 Z " fill="#EC252F" transform="translate(186,75)"/>
<path d="M0 0 C5.445 -0.0928125 5.445 -0.0928125 11 -0.1875 C12.12792969 -0.21481201 13.25585938 -0.24212402 14.41796875 -0.27026367 C20.68093907 -0.32160854 25.33632141 0.26244697 31 3 C34.66837848 6.76243946 35.89903071 9.48546069 36.25 14.75 C36.17214714 20.04399421 34.45526386 24.14328404 31.1875 28.3125 C25.20232271 32.92963677 18.30648648 32.239088 11.125 32.125 C7.45375 32.08375 3.7825 32.0425 0 32 C0 21.44 0 10.88 0 0 Z " fill="#010302" transform="translate(322,110)"/>
<path d="M0 0 C3.3 -0.061875 6.6 -0.12375 10 -0.1875 C11.53527344 -0.22846802 11.53527344 -0.22846802 13.1015625 -0.27026367 C20.22888064 -0.33439299 26.01304433 0.23079387 31.46484375 5.28515625 C34.27654209 10.2574981 33.80556897 15.47213018 33 21 C31.40458903 24.53082755 29.17904365 26.42721227 25.66918945 28.13232422 C22.7736953 29.07356507 20.51796429 29.229251 17.48046875 29.1953125 C16.55903076 29.19031738 15.63759277 29.18532227 14.68823242 29.18017578 C13.53299072 29.16196777 12.37774902 29.14375977 11.1875 29.125 C5.6496875 29.063125 5.6496875 29.063125 0 29 C0 19.43 0 9.86 0 0 Z " fill="#000100" transform="translate(322,69)"/>
<path d="M0 0 C2 1 2 1 2.69607544 2.73924255 C2.90481293 3.49487991 3.11355042 4.25051727 3.32861328 5.02905273 C3.56871124 5.88341415 3.8088092 6.73777557 4.05618286 7.61802673 C4.43442703 9.01173241 4.43442703 9.01173241 4.8203125 10.43359375 C5.08383514 11.38186539 5.34735779 12.33013702 5.61886597 13.30714417 C6.17557977 15.31612028 6.72846013 17.32616198 7.27783203 19.3371582 C8.12105286 22.42305483 8.97546349 25.50567512 9.83203125 28.58789062 C10.37044992 30.53627655 10.90823177 32.48483859 11.4453125 34.43359375 C11.70152374 35.36070663 11.95773499 36.28781952 12.22171021 37.24302673 C12.45550385 38.10054031 12.68929749 38.95805389 12.93017578 39.84155273 C13.13732208 40.59798569 13.34446838 41.35441864 13.55789185 42.1337738 C14 44 14 44 14 46 C5.42 46 -3.16 46 -12 46 C-10.875 38.125 -10.875 38.125 -9.87670898 34.62524414 C-9.65655624 33.84496353 -9.4364035 33.06468292 -9.20957947 32.26075745 C-8.97412918 31.44380905 -8.73867889 30.62686066 -8.49609375 29.78515625 C-8.2533522 28.92941513 -8.01061066 28.07367401 -7.76051331 27.19200134 C-6.99043477 24.4809339 -6.21407222 21.77171365 -5.4375 19.0625 C-4.911692 17.21561357 -4.38629708 15.36860948 -3.86132812 13.52148438 C-2.5789937 9.01294768 -1.29102354 4.50605588 0 0 Z " fill="#010402" transform="translate(766,73)"/>
<path d="M0 0 C0.66 0 1.32 0 2 0 C3.71443008 6.06740343 5.42280601 12.13648755 7.12695312 18.20678711 C7.70758522 20.2722851 8.28960998 22.33739213 8.87304688 24.40209961 C9.71068576 27.36731278 10.54333118 30.3338889 11.375 33.30078125 C11.63748535 34.2258699 11.8999707 35.15095856 12.17041016 36.1040802 C12.41065918 36.96474594 12.6509082 37.82541168 12.8984375 38.7121582 C13.11161621 39.46938675 13.32479492 40.2266153 13.54443359 41.00679016 C14 43 14 43 14 46 C5.42 46 -3.16 46 -12 46 C-10.65646092 39.95407416 -9.247045 33.99323651 -7.6171875 28.02734375 C-7.39805695 27.21882462 -7.17892639 26.41030548 -6.95315552 25.57728577 C-6.26235113 23.03016623 -5.56872803 20.48382462 -4.875 17.9375 C-4.40215598 16.19601451 -3.92949806 14.45447849 -3.45703125 12.71289062 C-2.30683507 8.47467392 -1.15411277 4.23715177 0 0 Z " fill="#010301" transform="translate(422,73)"/>
<path d="M0 0 C0 3 0 3 -0.98496819 5.36519146 C-2.06836819 8.1774694 -2.24678911 10.1582006 -2.24050903 13.15693665 C-2.24325836 14.17350845 -2.24600769 15.19008026 -2.24884033 16.23745728 C-2.2380545 17.89362564 -2.2380545 17.89362564 -2.22705078 19.58325195 C-2.22748886 21.33998985 -2.22748886 21.33998985 -2.22793579 23.13221741 C-2.22654312 27.00098087 -2.21098457 30.86955145 -2.1953125 34.73828125 C-2.19158215 37.42156806 -2.18863689 40.1048442 -2.18673706 42.78813171 C-2.18052658 49.12745654 -2.16412165 55.46671221 -2.14403808 61.80600661 C-2.1216656 69.02483882 -2.11068226 76.24367438 -2.10064721 83.46253264 C-2.07975502 98.30839247 -2.04458747 113.15419167 -2 128 C-0.68 128.66 0.64 129.32 2 130 C-3.875 129.125 -3.875 129.125 -5 128 C-5.10669909 126.46214803 -5.1440676 124.91943209 -5.15390015 123.37791443 C-5.16250061 122.37840256 -5.17110107 121.37889069 -5.17996216 120.34909058 C-5.18635208 118.69020309 -5.18635208 118.69020309 -5.19287109 116.99780273 C-5.20104858 115.84007858 -5.20922607 114.68235443 -5.21765137 113.48954773 C-5.24257163 109.63756842 -5.25904094 105.78562619 -5.2734375 101.93359375 C-5.27876118 100.62058855 -5.28408485 99.30758335 -5.28956985 97.95479012 C-5.31121183 92.4346012 -5.32994519 86.91441524 -5.34119225 81.3941946 C-5.35740595 73.48808473 -5.39050477 65.58246841 -5.44759309 57.67654461 C-5.48636859 52.11636052 -5.50583431 46.55630795 -5.51111281 40.99599224 C-5.51475821 37.67666909 -5.52920659 34.35799085 -5.55921555 31.03878593 C-5.59084126 27.32813027 -5.59090633 23.61871411 -5.58349609 19.90795898 C-5.59990143 18.81620361 -5.61630676 17.72444824 -5.63320923 16.59960938 C-5.57711472 9.72643615 -4.34227852 5.38664094 0 0 Z " fill="#D3E5C9" transform="translate(135,205)"/>
<path d="M0 0 C0.99 0 1.98 0 3 0 C3.04978091 5.79832741 3.08589861 11.59652784 3.10986328 17.39501953 C3.1198636 19.3637916 3.13346823 21.33254905 3.15087891 23.30126953 C3.1753917 26.14619581 3.18654306 28.99092415 3.1953125 31.8359375 C3.20563507 32.70302338 3.21595764 33.57010925 3.22659302 34.46347046 C3.22768167 40.51788855 2.38586575 46.11014424 1 52 C0.67 52 0.34 52 0 52 C0 34.84 0 17.68 0 0 Z " fill="#D1E3C1" transform="translate(113,129)"/>
<path d="M0 0 C5.61 0 11.22 0 17 0 C17.33 1.65 17.66 3.3 18 5 C17.34 4.34 16.68 3.68 16 3 C13.25514407 2.85492305 10.61519457 2.81347577 7.875 2.875 C6.74384766 2.88853516 6.74384766 2.88853516 5.58984375 2.90234375 C3.72642746 2.9259313 1.86317407 2.96180281 0 3 C0 2.01 0 1.02 0 0 Z " fill="#58E3A0" transform="translate(758,57)"/>
<path d="M0 0 C0.33 1.32 0.66 2.64 1 4 C2.79258558 3.91306859 4.58415144 3.80489496 6.375 3.6875 C7.37273437 3.62949219 8.37046875 3.57148438 9.3984375 3.51171875 C10.25695312 3.34285156 11.11546875 3.17398438 12 3 C12.66 2.01 13.32 1.02 14 0 C13.67 1.98 13.34 3.96 13 6 C8.38 6 3.76 6 -1 6 C-0.67 4.02 -0.34 2.04 0 0 Z " fill="#54D59C" transform="translate(387,148)"/>
<path d="M0 0 C0.33 0.99 0.66 1.98 1 3 C6.94 2.505 6.94 2.505 13 2 C13 2.99 13 3.98 13 5 C8.38 5 3.76 5 -1 5 C-0.67 3.35 -0.34 1.7 0 0 Z " fill="#53D49C" transform="translate(731,149)"/>
<path d="M0 0 C0.33 0.66 0.66 1.32 1 2 C4.96 2 8.92 2 13 2 C13.33 1.34 13.66 0.68 14 0 C14.33 1.32 14.66 2.64 15 4 C10.38 4 5.76 4 1 4 C0.67 2.68 0.34 1.36 0 0 Z " fill="#53D59E" transform="translate(446,150)"/>
<path d="M0 0 C0.66 0.33 1.32 0.66 2 1 C0.47793991 3.62901288 -0.84365964 5.84365964 -3 8 C-3.99 8 -4.98 8 -6 8 C-4.55746343 4.63408134 -2.66735273 2.48952921 0 0 Z " fill="#EB2B41" transform="translate(168,77)"/>
<path d="M0 0 C3.3 0 6.6 0 10 0 C6.90097677 3.09902323 4.60852615 2.9898579 0.25 3.0625 C-0.8225 3.041875 -1.895 3.02125 -3 3 C-2.01 2.67 -1.02 2.34 0 2 C0 1.34 0 0.68 0 0 Z " fill="#56DA9D" transform="translate(376,330)"/>
<path d="M0 0 C-2 2 -2 2 -5.625 2.125 C-6.73875 2.08375 -7.8525 2.0425 -9 2 C-9.33 1.34 -9.66 0.68 -10 0 C-6.7169902 -1.6415049 -3.57454967 -0.51888624 0 0 Z " fill="#D0DECA" transform="translate(115,91)"/>
<path d="M0 0 C0.88336837 2.4667645 1.1312406 3.63859372 0.22265625 6.140625 C-0.16019531 6.83671875 -0.54304688 7.5328125 -0.9375 8.25 C-1.31777344 8.95640625 -1.69804687 9.6628125 -2.08984375 10.390625 C-2.39019531 10.92171875 -2.69054687 11.4528125 -3 12 C-3.33 11.34 -3.66 10.68 -4 10 C-3.35561283 8.32459336 -2.68753301 6.65816784 -2 5 C-2 4.01 -2 3.02 -2 2 C-1.34 2 -0.68 2 0 2 C0 1.34 0 0.68 0 0 Z " fill="#59DFA4" transform="translate(411,302)"/>
</svg>
