<svg version="1.1" id="Layer_1" xmlns="http://www.w3.org/2000/svg" xmlns:xlink="http://www.w3.org/1999/xlink" x="0px" y="0px"
	 width="100%" viewBox="0 0 848 752" enable-background="new 0 0 848 752" xml:space="preserve">
<path fill="#000000" opacity="1.000000" stroke="none" 
	d="
M496.468628,753.000000 
	C495.887573,745.344116 495.689240,737.688416 495.678406,730.032410 
	C495.642609,704.705261 495.787079,679.377136 495.575958,654.051697 
	C495.538269,649.523865 496.961945,648.318298 501.279205,648.499268 
	C508.595642,648.806030 515.939636,648.686340 523.263733,648.466919 
	C526.237854,648.377991 527.665161,649.498840 528.919922,652.126465 
	C537.601929,670.308533 546.464844,688.404114 555.244629,706.539551 
	C555.833679,707.756226 556.409302,708.930176 557.882202,709.882263 
	C561.043762,705.976074 562.527039,701.170471 564.650452,696.760803 
	C571.802429,681.908325 578.792542,666.976807 585.697754,652.007812 
	C586.853455,649.502625 588.479004,648.442871 591.062134,648.450745 
	C599.048828,648.475098 607.035461,648.510559 615.022156,648.512207 
	C617.886536,648.512756 618.151489,650.458252 618.158508,652.591125 
	C618.174011,657.256531 618.155945,661.922058 618.152222,666.587524 
	C618.129395,695.080261 618.106873,723.572937 618.042114,752.532837 
	C610.312439,753.000000 602.624817,753.000000 594.611206,752.612549 
	C594.285156,731.047119 594.285156,709.869019 594.285156,688.690979 
	C592.503906,689.776184 591.749390,691.015259 591.120789,692.315247 
	C582.576965,709.984802 573.907227,727.595947 565.624390,745.387207 
	C563.640015,749.649658 560.567383,749.363647 557.040100,749.422791 
	C553.608887,749.480225 550.775452,749.479858 548.975098,745.485779 
	C544.122375,734.719788 538.823181,724.153992 533.647278,713.535034 
	C529.322144,704.661560 524.920654,695.825317 520.217651,686.292908 
	C518.823303,694.334778 519.780762,701.471497 519.695801,708.583801 
	C519.518982,723.387634 518.804138,738.203247 520.000000,753.000000 
	C512.312439,753.000000 504.624847,753.000000 496.468628,753.000000 
z"/>
<path fill="#000000" opacity="1.000000" stroke="none" 
	d="
M238.468658,753.000000 
	C239.355637,745.336731 241.750290,737.997498 244.631287,730.106812 
	C252.527542,734.828125 260.049652,738.947205 268.555206,740.921143 
	C276.618774,742.792480 284.598785,743.732422 292.672272,741.211243 
	C298.613556,739.355896 301.690643,736.047119 301.755493,731.307861 
	C301.832489,725.682922 298.097626,723.166992 293.553528,721.215881 
	C286.460602,718.170349 278.799652,717.198792 271.478577,714.997681 
	C263.166321,712.498535 254.878754,710.032837 248.486969,703.571045 
	C243.690964,698.722473 240.911606,693.040100 240.705170,686.249939 
	C240.548660,681.101990 239.952393,675.867493 241.219894,670.813171 
	C244.158600,659.094788 252.668060,652.334717 263.450470,649.135742 
	C282.680267,643.430420 301.613434,645.453674 319.859802,653.867371 
	C323.104248,655.363464 324.348846,657.162537 323.045044,660.891418 
	C321.348602,665.743225 320.208832,670.800354 319.014771,675.813293 
	C318.188324,679.282715 316.668121,680.458557 313.507965,678.155884 
	C306.045959,672.718750 297.530762,670.120300 288.524048,668.711304 
	C283.630890,667.945862 278.856964,668.375183 274.215271,669.798645 
	C270.202271,671.029358 267.037292,673.481628 266.417145,678.002014 
	C265.754974,682.828796 268.540924,685.961182 272.314301,688.139221 
	C276.366943,690.478333 280.940552,691.605408 285.474487,692.698975 
	C293.573212,694.652344 301.498322,697.000122 309.191071,700.348755 
	C330.071167,709.437866 332.364868,736.411377 320.337067,750.174316 
	C319.680023,750.926208 319.048859,751.700684 318.202820,752.732300 
	C291.645782,753.000000 265.291534,753.000000 238.468658,753.000000 
z"/>
<path fill="#000000" opacity="1.000000" stroke="none" 
	d="
M395.468658,753.000000 
	C395.869171,750.750732 395.604797,748.395935 395.605835,746.075439 
	C395.619171,715.590698 395.609131,685.105896 395.631195,654.621155 
	C395.632507,652.816162 395.263947,650.956360 396.077911,649.228027 
	C397.416901,648.126343 398.958923,648.576233 400.418457,648.569458 
	C424.068359,648.460266 447.718781,648.413452 471.367676,648.199158 
	C474.472900,648.171021 475.522583,649.156067 475.406647,652.201294 
	C475.222931,657.025391 475.188263,661.868042 475.393555,666.689880 
	C475.545135,670.250549 474.032776,671.301392 470.666748,671.275757 
	C456.008270,671.164062 441.346741,671.350159 426.690186,671.148499 
	C422.394714,671.089417 420.567474,672.364563 420.908020,676.840027 
	C421.223083,680.981079 421.169861,685.174011 420.942963,689.325745 
	C420.720306,693.398987 422.220764,694.896606 426.398590,694.826233 
	C438.555573,694.621338 450.722260,694.950745 462.877319,694.697388 
	C467.772675,694.595337 469.488892,696.471924 469.141632,701.144958 
	C468.895325,704.459290 468.918762,707.812866 469.094940,711.134399 
	C469.300323,715.005798 467.767609,716.400635 463.832336,716.338379 
	C451.674835,716.146057 439.508789,716.441101 427.353424,716.190674 
	C422.645172,716.093689 420.604584,717.551208 420.930908,722.428345 
	C421.230530,726.906494 421.136230,731.423157 420.986176,735.915222 
	C420.863220,739.595154 422.402405,740.828857 426.044678,740.787903 
	C439.869415,740.632568 453.696899,740.711426 467.523346,740.719849 
	C475.480530,740.724731 475.485870,740.739563 475.396088,748.605164 
	C475.382782,749.769653 475.291565,750.933228 475.118225,752.548584 
	C448.645782,753.000000 422.291534,753.000000 395.468658,753.000000 
z"/>
<path fill="#000000" opacity="1.000000" stroke="none" 
	d="
M345.468658,753.000000 
	C345.814667,751.093628 345.636810,749.076904 345.637115,747.085510 
	C345.641663,716.108887 345.709137,685.131958 345.556458,654.156128 
	C345.535431,649.896912 345.961456,647.705383 351.150787,648.298035 
	C356.396545,648.897217 361.782166,648.476135 367.093353,648.224243 
	C370.481842,648.063599 371.418365,649.557312 371.408356,652.662903 
	C371.301605,685.802673 371.267975,718.942627 371.107117,752.541260 
	C362.645782,753.000000 354.291534,753.000000 345.468658,753.000000 
z"/>
<path fill="#000000" opacity="1.000000" stroke="none" 
	d="
M328.056335,33.982296 
	C349.220154,23.712858 371.074036,16.725651 394.003479,13.744320 
	C422.754333,10.006081 451.353851,10.570799 479.831940,17.274323 
	C511.007385,24.612778 539.290222,37.629265 564.197571,57.702362 
	C604.168091,89.915001 631.124023,130.523117 642.375366,180.964996 
	C648.967651,210.519470 649.630188,240.220505 644.712769,270.172211 
	C636.249451,321.721252 610.736816,363.484711 572.341736,397.953369 
	C547.027832,420.678558 518.112732,437.156586 485.156769,445.924103 
	C460.844238,452.392151 436.066986,454.464386 410.878906,452.589417 
	C382.269165,450.459747 355.053589,443.416077 329.496063,430.525787 
	C292.481628,411.857056 263.292511,384.381683 240.728592,349.755188 
	C223.929123,323.974792 213.154465,295.839600 209.099487,265.337677 
	C206.529266,246.004379 206.206467,226.612015 208.345108,207.088806 
	C210.556976,186.897324 214.979111,167.303513 222.519150,148.582321 
	C241.411575,101.674171 273.319122,65.809814 316.719177,40.060284 
	C320.296021,37.938110 324.047485,36.110264 328.056335,33.982296 
M577.543518,352.062683 
	C591.111572,335.558441 601.483337,317.190582 608.678650,297.126587 
	C619.621399,266.613220 622.126099,235.197968 617.697754,203.166992 
	C613.706360,174.297485 603.719849,147.615265 586.930054,123.839127 
	C555.332214,79.093254 512.835205,51.111839 458.495667,41.435291 
	C433.128235,36.917976 407.926758,37.785263 383.188690,43.774105 
	C334.962280,55.449261 296.332703,81.798759 268.384949,123.060974 
	C239.055908,166.362503 229.504364,214.073212 238.451904,265.368286 
	C246.556061,311.828430 269.397278,350.112579 305.461945,380.273071 
	C336.727264,406.419922 372.811310,421.587250 413.629242,424.534973 
	C431.103821,425.796936 448.619720,425.136383 465.828644,421.509460 
	C481.839386,418.135071 497.019348,412.446106 511.710693,405.053528 
	C537.300293,392.176941 558.743042,374.386658 577.543518,352.062683 
z"/>
<path fill="#000000" opacity="1.000000" stroke="none" 
	d="
M225.811005,493.069641 
	C243.887726,505.617279 243.513397,525.134338 224.800766,542.190735 
	C227.154205,543.768799 229.470886,545.224854 231.684738,546.823242 
	C242.282791,554.475098 245.703217,565.151978 243.824738,577.578308 
	C242.001297,589.640564 234.246140,597.053955 223.151154,601.063599 
	C216.714249,603.389893 209.982193,604.442078 203.060089,604.396301 
	C186.900894,604.289246 170.738495,604.242004 154.581680,604.472046 
	C150.013351,604.537109 148.580048,603.078247 148.600403,598.488831 
	C148.757050,563.170715 148.754929,527.851257 148.593338,492.533173 
	C148.572128,487.896790 150.096024,486.526489 154.630051,486.595978 
	C169.953552,486.830933 185.284897,486.542419 200.608887,486.760559 
	C209.308411,486.884399 217.880173,488.086090 225.811005,493.069641 
M211.090240,557.321594 
	C209.040680,555.787964 206.654556,554.704590 204.202148,554.631836 
	C195.567673,554.375732 186.923950,554.425537 178.283630,554.376465 
	C175.802475,554.362366 175.291901,556.002258 175.294266,558.046204 
	C175.301941,564.696228 175.354752,571.346741 175.282867,577.995972 
	C175.253342,580.725830 176.411667,581.969055 179.137299,581.932190 
	C187.446869,581.819885 195.772827,582.037354 204.061661,581.575195 
	C209.754791,581.257812 214.312012,578.426575 215.936661,572.545593 
	C217.504547,566.870056 216.643814,561.668396 211.090240,557.321594 
M195.143509,534.750366 
	C196.953369,534.504211 198.794601,534.394836 200.567642,533.988159 
	C207.857529,532.316040 211.803604,527.553040 211.694763,520.707397 
	C211.585602,513.842285 207.984024,509.726624 200.509460,508.161499 
	C193.255356,506.642487 185.899460,507.645508 178.590729,507.494293 
	C175.559219,507.431580 175.264053,509.626831 175.271301,511.975861 
	C175.290359,518.139038 175.390945,524.305237 175.231522,530.464417 
	C175.145340,533.793640 176.596771,534.859619 179.724457,534.773804 
	C184.551254,534.641296 189.384781,534.754395 195.143509,534.750366 
z"/>
<path fill="#000000" opacity="1.000000" stroke="none" 
	d="
M511.049255,616.312500 
	C523.359619,612.579895 530.827026,602.857605 528.951904,592.921082 
	C526.556702,594.564392 524.389038,596.307739 521.997498,597.653076 
	C495.130249,612.766724 462.316498,594.656799 460.602692,563.899170 
	C459.904572,551.370422 460.541656,539.274963 468.538574,528.709229 
	C481.489807,511.597687 508.691742,507.654449 525.948120,520.461975 
	C526.963684,521.215759 527.682251,522.506104 529.192322,522.506104 
	C530.513794,514.655151 530.513916,514.684998 539.183350,514.656372 
	C542.344360,514.645935 545.538940,514.708069 548.657471,514.287292 
	C553.149048,513.681274 554.463867,515.465210 554.435486,519.821106 
	C554.272583,544.804932 554.492249,569.791687 554.269348,594.774658 
	C554.025085,622.147095 537.359009,638.592041 509.879120,639.453491 
	C496.175262,639.882996 483.029480,638.134766 470.482941,632.303284 
	C466.372955,630.393005 464.849243,628.190674 466.876587,623.783264 
	C468.398224,620.475220 469.282379,616.877747 470.518127,613.433411 
	C472.489258,607.939453 472.882355,607.748047 477.845856,610.435181 
	C488.137238,616.006836 499.027069,618.166626 511.049255,616.312500 
M485.918640,562.511841 
	C488.743958,574.644592 495.432312,579.899719 507.915588,579.795349 
	C520.176941,579.692871 528.730469,571.447876 529.610352,558.883057 
	C530.401184,547.591125 522.282654,536.885498 511.684235,535.244385 
	C498.191650,533.155151 488.610657,539.248535 485.770416,551.785767 
	C485.026703,555.068787 485.226044,558.399719 485.918640,562.511841 
z"/>
<path fill="#000000" opacity="1.000000" stroke="none" 
	d="
M686.030396,604.369690 
	C677.842468,604.365662 677.842468,604.365662 676.468323,597.295898 
	C673.994629,597.748718 672.801025,600.009766 670.945496,601.222290 
	C659.849243,608.473633 640.563599,608.454590 629.551147,600.880615 
	C620.415039,594.597046 618.072144,585.447083 619.037903,575.004028 
	C620.149414,562.986267 627.198486,556.099426 638.356567,552.953796 
	C643.502075,551.503174 648.841858,551.083313 654.180176,551.004333 
	C659.344482,550.927856 664.510864,551.011597 669.676270,550.993835 
	C675.800110,550.972717 676.373962,550.158630 675.006348,544.348999 
	C673.783142,539.152832 670.236694,536.477478 665.398193,535.306824 
	C654.382874,532.641479 644.320068,535.453796 634.753906,540.908447 
	C628.389893,544.537231 628.380920,544.514160 626.684387,537.173096 
	C626.159790,534.903320 625.871277,532.534851 625.016785,530.394348 
	C623.092468,525.573669 624.710571,522.592346 629.169861,520.377441 
	C646.643250,511.698517 664.597839,510.417755 682.845520,517.260010 
	C693.521912,521.263184 699.231079,529.694824 700.213196,540.882751 
	C701.964294,560.829834 700.593445,580.848022 701.043091,600.829712 
	C701.108887,603.753235 699.659119,604.548462 697.009705,604.439575 
	C693.515869,604.295837 690.012512,604.382385 686.030396,604.369690 
M645.031189,572.604309 
	C642.043152,579.898987 644.344971,584.828308 651.834534,586.435791 
	C658.656128,587.899902 665.128479,586.841187 670.742737,582.399536 
	C674.213013,579.654053 675.902039,576.061646 675.868103,571.533264 
	C675.844666,568.411133 674.798889,566.906860 671.509277,567.013550 
	C666.348267,567.181030 661.179993,567.108337 656.015808,567.196838 
	C651.814880,567.268799 648.220032,568.753235 645.031189,572.604309 
z"/>
<path fill="#000000" opacity="1.000000" stroke="none" 
	d="
M337.375671,597.915039 
	C337.987518,602.835144 336.372925,604.917969 331.610931,604.448914 
	C328.311005,604.123779 324.949554,604.483154 321.619568,604.391907 
	C313.245361,604.162415 315.191040,605.873779 312.959839,597.883484 
	C310.848297,599.309204 308.952698,600.886536 306.811676,601.985901 
	C294.200958,608.461304 281.268890,608.313782 268.880432,602.031982 
	C258.098358,596.564697 255.889008,586.329651 256.666931,575.131958 
	C257.331055,565.572327 262.156464,558.960083 270.742737,554.955444 
	C277.872437,551.630127 285.552612,551.287659 293.203644,550.994263 
	C298.361572,550.796387 303.535339,550.879761 308.698517,550.994507 
	C312.177032,551.071655 313.002991,549.314331 312.581360,546.258789 
	C311.767731,540.362671 308.333527,536.582886 302.561218,535.263062 
	C291.340729,532.697510 281.160400,535.718872 271.391205,540.996582 
	C269.801758,541.855286 268.474609,543.262634 265.885406,543.348816 
	C263.574493,537.726501 262.191650,531.660034 261.131989,525.528442 
	C260.793884,523.572083 262.716125,522.783264 264.079071,521.868469 
	C274.639160,514.780579 286.526245,512.955994 298.890442,513.324646 
	C305.701080,513.527710 312.448578,513.925537 318.942169,516.703308 
	C331.271118,521.977234 337.113556,531.423157 337.286682,544.436584 
	C337.521606,562.096985 337.365112,579.762634 337.375671,597.915039 
M299.607819,586.427185 
	C301.326477,585.811096 303.097778,585.310669 304.754181,584.557617 
	C310.312469,582.030762 313.387146,576.450989 312.734344,570.420227 
	C312.583557,569.027405 312.424194,567.387024 310.822540,567.381531 
	C302.590729,567.353271 294.159363,565.558960 286.259155,569.137634 
	C282.771454,570.717590 280.366608,573.734558 280.543274,577.786499 
	C280.719818,581.836365 283.376862,584.321045 286.993896,585.882812 
	C290.848907,587.547363 294.814728,586.926880 299.607819,586.427185 
z"/>
<path fill="#000000" opacity="1.000000" stroke="none" 
	d="
M443.585754,574.673096 
	C443.661530,583.205811 443.582001,591.366333 443.836578,599.516541 
	C443.948456,603.097778 443.025208,604.760620 439.108246,604.515625 
	C434.294647,604.214417 429.403778,603.974487 424.631958,604.494324 
	C419.428772,605.061096 418.562775,602.897461 418.631592,598.315369 
	C418.856598,583.325745 418.837067,568.328064 418.623047,553.337524 
	C418.415985,538.831604 405.494629,530.942749 392.438477,537.056091 
	C385.876556,540.128662 383.340942,545.563049 383.301208,552.388733 
	C383.210999,567.881348 383.115814,583.376465 383.320770,598.866638 
	C383.381836,603.480347 381.986816,605.130005 377.259308,604.687012 
	C371.970184,604.191284 366.609802,604.341553 361.282898,604.407654 
	C358.245758,604.445312 356.707886,603.587463 356.717285,600.181580 
	C356.792755,572.860718 356.768982,545.539490 356.703583,518.218506 
	C356.696625,515.315674 357.947021,514.527100 360.658539,514.581604 
	C366.316284,514.695435 371.991547,514.749756 377.635956,514.421570 
	C381.209717,514.213867 382.570831,515.526794 382.366516,518.947876 
	C382.298309,520.090393 382.465668,521.246948 382.524750,522.385437 
	C384.385254,522.935059 385.001740,521.403992 385.951508,520.651550 
	C396.670959,512.158875 414.567444,510.711700 426.546143,517.108521 
	C437.525391,522.971558 442.376221,532.618896 443.176880,544.355896 
	C443.855164,554.298706 443.476929,564.313721 443.585754,574.673096 
z"/>
<path fill="#000000" opacity="1.000000" stroke="none" 
	d="
M576.678101,487.133911 
	C576.318970,483.090393 577.698120,481.477570 581.490295,481.635681 
	C586.976624,481.864319 592.481750,481.794281 597.974365,481.662567 
	C601.221680,481.584686 602.322571,482.957275 602.317444,486.130920 
	C602.255737,524.101807 602.246643,562.072937 602.334839,600.043762 
	C602.343140,603.634644 600.943726,604.656494 597.563538,604.507568 
	C592.243835,604.273071 586.902344,604.253296 581.580566,604.440002 
	C577.931030,604.568054 576.590515,603.240723 576.637268,599.533508 
	C576.794861,587.045105 576.688843,574.553345 576.686035,562.062866 
	C576.680542,537.248352 576.676636,512.433899 576.678101,487.133911 
z"/>
<path fill="#000000" opacity="1.000000" stroke="none" 
	d="
M494.525757,365.552002 
	C475.537201,381.502594 454.969421,394.375427 433.275818,405.538971 
	C430.067230,407.190155 427.356689,407.351929 423.924744,405.636475 
	C393.632996,390.495422 365.447266,372.396790 341.667694,347.994385 
	C316.871063,322.548279 301.051666,292.536804 296.185547,257.161163 
	C295.168640,249.768448 295.171509,242.201797 295.138702,234.713394 
	C295.018951,207.383926 295.027771,180.053467 295.108704,152.723755 
	C295.135803,143.573120 295.671570,134.423691 295.679352,125.273453 
	C295.682800,121.191292 297.201508,119.680603 301.277863,119.688286 
	C331.627930,119.745537 360.179108,112.195389 387.328430,98.938965 
	C400.243408,92.632858 412.293488,84.908531 423.509186,75.952560 
	C426.701172,73.403725 428.756866,73.305939 432.065033,75.968475 
	C454.007355,93.628372 478.624695,105.944443 505.891571,113.347916 
	C522.136414,117.758713 538.530518,119.649246 555.224548,119.539360 
	C559.210205,119.513130 560.135315,121.227654 560.126526,124.573135 
	C560.107727,131.738647 560.171997,138.904343 560.186829,146.069992 
	C560.247253,175.233017 559.859253,204.405106 560.456604,233.557053 
	C561.496277,284.293030 540.357544,324.584290 503.465881,357.775665 
	C500.618195,360.337769 497.689240,362.809540 494.525757,365.552002 
M490.956787,276.731689 
	C488.160797,278.700806 485.539917,278.349060 482.594391,276.709839 
	C477.214813,273.716095 471.705414,270.926544 466.103577,268.373352 
	C463.195007,267.047699 461.826355,265.400360 461.593903,262.058105 
	C460.818787,250.912857 455.737488,242.044540 446.323242,235.914856 
	C443.761505,234.246841 442.876587,232.295486 442.922638,229.311874 
	C443.063995,220.151703 443.187408,210.978119 442.835907,201.828278 
	C442.619141,196.185623 443.893860,192.031998 448.350098,187.900955 
	C458.227264,178.744583 460.499176,167.161514 455.671722,154.540466 
	C450.906616,142.082443 441.312408,135.502258 428.322205,134.465744 
	C417.167267,133.575653 404.478455,142.394669 400.346497,152.866486 
	C394.674011,167.242538 397.626526,180.427780 409.012482,189.847885 
	C411.487061,191.895203 412.422028,193.923599 412.403595,197.014725 
	C412.338104,208.007065 412.428406,219.002121 412.634094,229.992889 
	C412.677216,232.297684 411.942078,233.786499 410.080475,234.963760 
	C399.734650,241.506424 394.689514,251.254120 393.498810,263.129547 
	C393.221161,265.898651 391.994598,267.245178 389.681946,268.321808 
	C384.100800,270.920105 378.477173,273.467621 373.100189,276.449463 
	C369.602753,278.388977 366.674225,278.463409 363.401794,276.153351 
	C358.617920,272.776306 353.175323,271.298676 347.339111,271.772003 
	C326.712128,273.444733 314.847015,296.345184 324.531525,315.690155 
	C332.434570,331.476624 352.158905,336.946136 367.035980,327.563080 
	C373.659515,323.385681 376.822937,316.854034 379.444183,309.932739 
	C380.298309,307.677460 381.233246,305.813629 383.694885,304.775635 
	C390.131561,302.061523 396.593597,299.350250 402.788422,296.141510 
	C406.372498,294.285034 409.090698,294.699799 412.525177,296.520477 
	C422.604828,301.863861 432.974945,302.052612 443.041412,296.445374 
	C446.191437,294.690796 448.841614,294.597412 451.951111,296.125397 
	C456.870605,298.542786 461.789673,301.020721 466.900238,302.972046 
	C471.591705,304.763336 475.514374,306.635193 476.568329,312.352997 
	C477.085541,315.158936 479.030884,317.794006 480.667725,320.284424 
	C486.279694,328.822937 499.630676,334.443024 508.513519,332.201660 
	C519.733643,329.370544 527.760986,322.862213 532.378113,312.102020 
	C537.218567,300.821472 533.748413,286.972931 523.615540,278.224121 
	C514.687256,270.515350 502.213135,269.767548 490.956787,276.731689 
z"/>
<path fill="#000000" opacity="1.000000" stroke="none" 
	d="
M418.209137,183.105453 
	C410.232300,177.616791 407.916504,170.239151 409.826843,161.471588 
	C411.250488,154.937851 415.368622,150.646622 421.863586,148.688004 
	C429.764313,146.305481 438.264008,149.196976 442.591064,155.829926 
	C446.929443,162.480240 446.478119,173.766098 440.660004,179.003204 
	C436.172791,183.042297 435.118073,187.386475 435.241119,193.041824 
	C435.556366,207.530472 435.426697,222.031265 435.289276,236.525452 
	C435.257294,239.899399 436.116180,241.847488 439.430817,243.450470 
	C448.149933,247.667175 452.024078,255.141327 451.237061,264.678040 
	C450.873657,269.081360 452.468353,271.229645 456.308746,273.067596 
	C465.766724,277.594055 475.020142,282.550354 484.325317,287.392365 
	C487.779816,289.189972 490.612976,289.710144 494.279449,286.913422 
	C501.097748,281.712585 509.920715,282.337494 516.491821,287.508911 
	C522.532532,292.262909 525.042908,301.550598 522.242310,308.784332 
	C519.222168,316.585144 511.543976,321.685394 503.563110,321.192108 
	C495.499878,320.693756 489.123413,315.365356 487.069031,306.887848 
	C486.413666,304.183502 485.326416,302.667450 482.754211,301.459167 
	C471.302521,296.079895 459.939789,290.505005 448.642761,284.806824 
	C445.606842,283.275513 443.332611,283.364288 440.412659,285.305511 
	C431.633850,291.141754 422.511566,290.995056 413.711487,285.322449 
	C411.072571,283.621368 409.033173,283.609436 406.383698,284.943542 
	C395.377991,290.485229 384.347595,295.983582 373.215942,301.265381 
	C370.264313,302.665924 368.565674,304.423309 367.642273,307.632996 
	C365.407227,315.402252 360.032349,320.041595 352.012512,321.186829 
	C344.411316,322.272247 338.563782,318.834625 334.616669,312.699585 
	C330.257477,305.924011 330.826294,298.667664 334.782166,291.852478 
	C339.668793,283.433838 351.183289,280.789490 359.673553,286.620270 
	C363.969086,289.570251 367.227478,289.267120 371.429840,287.003052 
	C380.511078,282.110443 389.729401,277.456696 399.033447,273.001404 
	C402.496277,271.343201 403.977203,269.348633 403.775177,265.364197 
	C403.275391,255.506882 407.078491,247.839859 416.402740,243.562775 
	C418.425079,242.635101 419.587769,241.375732 419.584808,239.028885 
	C419.562592,221.368256 419.592102,203.707581 419.599884,186.046906 
	C419.600372,185.009109 419.274261,184.084686 418.209137,183.105453 
z"/>
</svg>