<?xml version="1.0" encoding="UTF-8"?>
<svg version="1.1" xmlns="http://www.w3.org/2000/svg" width="457" height="280">
<path d="M0 0 C150.81 0 301.62 0 457 0 C457 92.4 457 184.8 457 280 C306.19 280 155.38 280 0 280 C0 187.6 0 95.2 0 0 Z " fill="#0A0A09" transform="translate(0,0)"/>
<path d="M0 0 C1.43392983 0.46000485 2.86823877 0.91882943 4.30290222 1.37654114 C7.29866443 2.3354805 10.29121499 3.30364022 13.28149414 4.27954102 C17.07617953 5.51791878 20.8756711 6.74059496 24.67738819 7.95719433 C28.34912906 9.13285181 32.01844337 10.31599689 35.6875 11.5 C36.36852091 11.71920797 37.04954182 11.93841595 37.75119972 12.16426659 C64.95395527 20.94274606 64.95395527 20.94274606 70.63589478 28.77888489 C72.42699879 32.34708869 72.42384589 34.94513134 72.43115234 38.93237305 C72.43903778 40.01663574 72.43903778 40.01663574 72.44708252 41.12280273 C72.460264 43.50917317 72.4515393 45.89487286 72.44140625 48.28125 C72.44343037 49.9573428 72.44634462 51.63343473 72.45010376 53.30952454 C72.454527 56.8292374 72.4481067 60.34872193 72.43408203 63.8684082 C72.41716157 68.32715112 72.42672088 72.78534532 72.44479942 77.24406719 C72.45578519 80.71305763 72.45212143 84.18192421 72.44441605 87.65091896 C72.44244554 89.29115682 72.44475942 90.93140678 72.45185471 92.57163048 C72.54801985 121.09898608 65.31978268 145.97757482 46.04296875 167.58203125 C44.90601563 168.93361328 44.90601563 168.93361328 43.74609375 170.3125 C37.26070297 177.82580402 30.00037512 183.73481448 22.04296875 189.58203125 C21.0375 190.33097656 20.03203125 191.07992187 18.99609375 191.8515625 C-11.10838632 213.49403198 -11.10838632 213.49403198 -23.95703125 211.58203125 C-28.20667511 210.0390058 -32.06369736 207.85599551 -35.95703125 205.58203125 C-36.65070801 205.17984375 -37.34438477 204.77765625 -38.05908203 204.36328125 C-55.64894333 194.08244908 -74.44163471 181.98151638 -86.95703125 165.58203125 C-87.73433594 164.57914063 -88.51164062 163.57625 -89.3125 162.54296875 C-102.35051553 145.28435351 -111.08381984 125.45878404 -111.11816406 103.53881836 C-111.12312897 102.76714828 -111.12809387 101.99547821 -111.13320923 101.20042419 C-111.14771066 98.67006514 -111.15461023 96.13976862 -111.16015625 93.609375 C-111.16439732 92.30633014 -111.16439732 92.30633014 -111.16872406 90.97696114 C-111.18366275 86.38592351 -111.19292761 81.79491692 -111.19726562 77.20385742 C-111.20276322 72.47052929 -111.22683343 67.73748692 -111.25523758 63.00424862 C-111.2738776 59.35391915 -111.27907014 55.70365864 -111.2806015 52.0532856 C-111.28362207 50.30821725 -111.29163044 48.56314995 -111.30478668 46.81812859 C-111.32188691 44.37714741 -111.31995823 41.93686677 -111.31347656 39.49584961 C-111.32269135 38.7803595 -111.33190613 38.06486938 -111.34140015 37.32769775 C-111.29087339 31.23757885 -109.63151965 27.34024407 -105.45703125 22.95703125 C-98.47614759 17.55851691 -88.33886511 15.68585601 -80.015625 13.12109375 C-79.00846939 12.80804291 -78.00131378 12.49499207 -76.96363831 12.17245483 C-73.77470473 11.18148205 -70.58472923 10.19392529 -67.39453125 9.20703125 C-64.23996254 8.23027648 -61.08566311 7.25268345 -57.93203735 6.27288818 C-55.87120583 5.63264834 -53.80982778 4.99416486 -51.74789429 4.35748291 C-47.06003139 2.90149431 -42.39705416 1.4085135 -37.77001953 -0.23144531 C-36.96838882 -0.51275299 -36.16675812 -0.79406067 -35.34083557 -1.08389282 C-33.88626248 -1.59966556 -32.43601625 -2.12793632 -30.99205017 -2.67269897 C-20.0609504 -6.541675 -10.60846362 -3.48653233 0 0 Z " fill="#DC521D" transform="translate(126.95703125,22.41796875)"/>
<path d="M0 0 C62.13669065 0 62.13669065 0 73.78515625 10.62890625 C80.58510652 17.82983639 81.59300219 25.9182693 81.34375 35.56640625 C80.48195059 44.17460713 76.62489049 51.38055027 70 57 C67.27734375 58.21875 67.27734375 58.21875 65 59 C65.72445312 59.40089844 66.44890625 59.80179688 67.1953125 60.21484375 C75.8628694 65.31136721 80.64514526 70.44377841 83.875 80 C86.40914368 89.80472259 85.18510618 99.70941529 80.59375 108.77734375 C74.95312153 117.62408415 66.79196277 121.89921179 57 125 C38.25563148 128.12406142 19.00292375 126 0 126 C0 84.42 0 42.84 0 0 Z " fill="#F6B61F" transform="translate(241,47)"/>
<path d="M0 0 C1.051875 0.70125 2.10375 1.4025 3.1875 2.125 C9.29885715 7.52137943 12.70864885 16.12275798 14 24 C14 26.64 14 29.28 14 32 C5.75 32 -2.5 32 -11 32 C-11.99 28.7 -12.98 25.4 -14 22 C-15.83358921 18.17337904 -17.06528843 16.52720161 -21 15 C-24.10682321 14.64588065 -24.10682321 14.64588065 -27.4375 14.6875 C-28.54996094 14.67074219 -29.66242188 14.65398437 -30.80859375 14.63671875 C-35.28692881 15.14649251 -37.9090414 16.7209451 -40.8125 20.125 C-42.44515884 24.07775298 -42.87711175 27.79400742 -42 32 C-39.29225521 37.2082301 -36.08033531 39.50506539 -30.875 41.875 C-30.18067871 42.20814209 -29.48635742 42.54128418 -28.77099609 42.88452148 C-24.21098271 45.0497917 -19.58514461 47.05575066 -14.95068359 49.05517578 C-2.61657767 54.39745177 7.99367256 59.91378834 13.8125 72.6875 C17.84496762 83.93596231 16.5634515 95.09921617 12 106 C7.84768189 114.03760612 0.50222585 118.79284824 -7.74609375 122.1015625 C-23.07652297 126.65178698 -40.71579896 125.01296194 -54.75 117.43359375 C-63.06719615 112.13426912 -67.65733334 104.26027659 -70.3125 94.875 C-71 91 -71 91 -71 83 C-62.42 83 -53.84 83 -45 83 C-44.34 86.3 -43.68 89.6 -43 93 C-40.63736629 97.48085703 -38.51822171 99.77279749 -34 102 C-27.4899637 102.83106846 -20.4105004 103.1290661 -15 99 C-11.58573264 95.2443059 -11.61913299 91.44486107 -11.50390625 86.59765625 C-12.21769798 82.86008539 -13.52778471 80.90600462 -16 78 C-18.75856867 76.21146133 -21.67396412 74.92593684 -24.6875 73.625 C-25.52531006 73.2434375 -26.36312012 72.861875 -27.22631836 72.46875 C-30.6004909 70.93425572 -33.99091733 69.43917983 -37.38964844 67.95996094 C-50.83346762 62.09513065 -62.30496093 55.54545195 -68.09765625 41.30078125 C-70.78907284 31.45555607 -70.19108315 19.7647746 -65.66796875 10.6171875 C-59.2709191 0.57966229 -50.4573976 -4.66150151 -39 -7.3125 C-25.54364411 -9.5129104 -11.40233173 -7.8376276 0 0 Z " fill="#F5B61F" transform="translate(411,51)"/>
<path d="M0 0 C3.42460923 1.68789294 5.46094214 4.10938267 7.4375 7.375 C8.32158416 11.50072607 8.14367788 15.02616211 5.98828125 18.74609375 C3.95553141 21.42008959 2.41081738 22.87219015 -0.8125 23.875 C-1.534375 23.91625 -2.25625 23.9575 -3 24 C-3.0825 24.99 -3.165 25.98 -3.25 27 C-4.75740506 36.68217863 -11.11898909 42.74302598 -17.59814453 49.52148438 C-19.64945245 51.68496761 -21.63724192 53.90318253 -23.625 56.125 C-24.35332031 56.93582031 -25.08164063 57.74664062 -25.83203125 58.58203125 C-27.26752422 60.18305855 -28.70242849 61.7846139 -30.13671875 63.38671875 C-34.8454518 68.63649114 -39.60071398 73.83982337 -44.3996582 79.00708008 C-45.34464356 80.02652774 -46.27982418 81.05514893 -47.20513916 82.09248352 C-49 84 -49 84 -51.24143982 86.00741577 C-56.11485054 90.67244669 -58.57656814 94.09435232 -59.11352539 100.91845703 C-59.15378537 103.54240999 -59.1480711 106.13696336 -59.09765625 108.7578125 C-59.10332121 110.15601687 -59.11294785 111.55421023 -59.12632751 112.95236206 C-59.1507587 116.59945329 -59.12204705 120.24418142 -59.08154297 123.89105225 C-59.04971038 127.62536184 -59.06912506 131.35938597 -59.08398438 135.09375 C-59.10561166 142.39649403 -59.07099527 149.69750591 -59 157 C-65.875 156.125 -65.875 156.125 -67 155 C-67.13611993 153.01859544 -67.20192303 151.03233128 -67.24047852 149.04663086 C-67.26622452 147.77117905 -67.29197052 146.49572723 -67.3184967 145.18162537 C-67.40797753 139.31897866 -67.46862647 133.4561488 -67.51489258 127.59301758 C-67.54157467 124.50113895 -67.59020283 121.41081537 -67.65844727 118.31958008 C-67.74071811 114.58348448 -67.78312588 110.84886213 -67.79795647 107.11190987 C-67.81015702 105.69208824 -67.83608184 104.27231152 -67.87640572 102.85301018 C-68.17566115 91.75793976 -68.17566115 91.75793976 -65.27780151 87.42483521 C-63.28329546 85.42660672 -61.22635001 83.72981332 -59 82 C-57.88858584 80.79616431 -56.80056388 79.56978968 -55.75 78.3125 C-52.58230142 74.62896059 -49.30464085 71.06009411 -46 67.5 C-42.21279188 63.41647228 -38.47861694 59.30299983 -34.83984375 55.0859375 C-32.91249229 52.90078743 -30.93661206 50.764272 -28.95336914 48.62988281 C-17.2741696 37.39420716 -17.2741696 37.39420716 -12.0625 22.875 C-12.99141496 20.80254419 -12.99141496 20.80254419 -15.0625 18.75 C-17.19842577 15.71836342 -17.58319779 13.69256043 -17.39453125 9.99609375 C-16.74323634 6.7009284 -15.1185183 4.54222196 -13 2 C-8.74696324 -0.83535784 -4.99241992 -0.76089759 0 0 Z " fill="#F9B522" transform="translate(166,77)"/>
<path d="M0 0 C3.12001504 1.68818449 5.39047471 3.78094941 7 7 C7.43546696 11.26255164 7.42778484 14.94179539 5.8125 18.9375 C3.70952149 21.33054451 1.95172036 21.92269453 -1 23 C-0.91359253 24.22348145 -0.91359253 24.22348145 -0.82543945 25.47167969 C0.78467152 51.65590091 0.78467152 51.65590091 -4.64135742 57.98925781 C-7.44319021 60.60620744 -10.51452517 62.88360769 -13.57641602 65.18473816 C-17.82683036 69.12078578 -18.46934356 72.60340815 -18.77294922 78.31225586 C-18.83545074 81.28082468 -18.82369357 84.24584286 -18.8046875 87.21484375 C-18.81594756 88.79669715 -18.82983253 90.37853384 -18.84622192 91.96034241 C-18.88216455 96.10495287 -18.88264577 100.24882426 -18.87554932 104.39355469 C-18.87463446 108.63034167 -18.90752245 112.86685453 -18.9375 117.10351562 C-18.9912724 125.40244546 -19.00755503 133.70090039 -19 142 C-21.9719385 140.87548273 -24.33440687 139.77706209 -27 138 C-27.44151306 135.15153503 -27.44151306 135.15153503 -27.53100586 131.46166992 C-27.55071945 130.78975616 -27.57043304 130.11784241 -27.59074402 129.42556763 C-27.65002543 127.1938575 -27.68496668 124.96275729 -27.71484375 122.73046875 C-27.72707033 121.96521692 -27.73929691 121.1999651 -27.751894 120.41152382 C-27.81455081 116.35062718 -27.85739881 112.29003554 -27.88549805 108.22875977 C-27.91848078 104.06224364 -28.02136457 99.90063187 -28.14101315 95.73583508 C-28.22012181 92.51062672 -28.244626 89.2865423 -28.25534248 86.0604496 C-28.26981867 84.52739123 -28.30431636 82.99436924 -28.36045647 81.46227074 C-28.63591459 73.43724642 -28.27903874 67.67765593 -22.81276035 61.4608736 C-20.75697045 59.34071199 -18.62054467 57.33254124 -16.43236351 55.35022449 C-13.4108008 52.50193357 -11.21388047 50.15749889 -10.45410156 46.0456543 C-10.4331543 44.98258057 -10.41220703 43.91950684 -10.390625 42.82421875 C-10.35839844 41.66728516 -10.32617188 40.51035156 -10.29296875 39.31835938 C-10.27878906 38.12017578 -10.26460937 36.92199219 -10.25 35.6875 C-10.22035156 34.46998047 -10.19070312 33.25246094 -10.16015625 31.99804688 C-10.08958177 28.99863167 -10.03682136 25.9999883 -10 23 C-10.62519531 22.70351562 -11.25039062 22.40703125 -11.89453125 22.1015625 C-14.56671239 20.70350112 -15.53495125 19.6510406 -17 17 C-18.18278522 12.11115443 -18.61098558 10.19934206 -16.3125 5.6875 C-11.41604808 -0.00297115 -7.41437569 -1.28438004 0 0 Z " fill="#F8B520" transform="translate(97,77)"/>
<path d="M0 0 C3.650625 -0.0825 7.30125 -0.165 11.0625 -0.25 C12.19953369 -0.28641602 13.33656738 -0.32283203 14.50805664 -0.36035156 C20.93250205 -0.43038508 24.78836622 0.16395391 30 4 C34.02510676 8.42761743 34.29041965 12.66912436 34.21484375 18.4296875 C33.80199393 23.36887261 32.25799315 26.70706259 28.75 30.3125 C22.41509821 34.1998261 16.28371078 34.26665382 9.0625 34.125 C6.071875 34.08375 3.08125 34.0425 0 34 C0 22.78 0 11.56 0 0 Z " fill="#0A0A09" transform="translate(266,118)"/>
<path d="M0 0 C2.97 -0.0825 5.94 -0.165 9 -0.25 C10.37865234 -0.30462402 10.37865234 -0.30462402 11.78515625 -0.36035156 C17.63587659 -0.438127 22.17387771 0.56375361 27 4 C30.17879967 8.37084954 30.74599803 12.71669889 30 18 C28.35104977 23.20721124 26.54766546 25.96822303 22 29 C19.59940183 30.20029908 18.10639351 30.11459743 15.4296875 30.09765625 C14.62257324 30.09515869 13.81545898 30.09266113 12.98388672 30.09008789 C11.9579541 30.08098389 10.93202148 30.07187988 9.875 30.0625 C4.986875 30.0315625 4.986875 30.0315625 0 30 C0 20.1 0 10.2 0 0 Z " fill="#0C0B09" transform="translate(266,68)"/>
<path d="M0 0 C0.94220901 -0.00637985 1.88441803 -0.0127597 2.85517883 -0.01933289 C3.88418808 -0.02044571 4.91319733 -0.02155853 5.97338867 -0.02270508 C7.03111984 -0.02603348 8.08885101 -0.02936188 9.17863464 -0.03279114 C11.42914392 -0.03786952 13.67966078 -0.04019918 15.93017578 -0.04003906 C19.33859163 -0.04220283 22.74667179 -0.06028524 26.1550293 -0.0793457 C28.34448132 -0.08228416 30.53393488 -0.08426593 32.72338867 -0.08520508 C33.73013138 -0.09239059 34.73687408 -0.09957611 35.77412415 -0.10697937 C42.76761885 -0.08495381 49.79817902 0.30822512 56.57885742 2.14526367 C57.07385742 3.13526367 57.07385742 3.13526367 57.57885742 4.14526367 C54.60885742 3.81526367 51.63885742 3.48526367 48.57885742 3.14526367 C31.41885742 2.81526367 14.25885742 2.48526367 -3.42114258 2.14526367 C-3.42114258 43.72526367 -3.42114258 85.30526367 -3.42114258 128.14526367 C-4.08114258 128.14526367 -4.74114258 128.14526367 -5.42114258 128.14526367 C-5.44447146 111.60379298 -5.4621217 95.06232761 -5.47295475 78.52084446 C-5.47811773 70.8408764 -5.48516046 63.16091854 -5.49658203 55.48095703 C-5.50652881 48.78948378 -5.51299599 42.09801791 -5.51523107 35.40653747 C-5.51653819 31.86130766 -5.51962411 28.31609899 -5.52687263 24.77087593 C-5.53488638 20.81957723 -5.53513372 16.86829947 -5.53466797 12.91699219 C-5.53826324 11.73304367 -5.54185852 10.54909515 -5.54556274 9.32926941 C-5.54418808 8.25929718 -5.54281342 7.18932495 -5.54139709 6.08692932 C-5.54231889 5.15130944 -5.54324068 4.21568956 -5.54419041 3.25171757 C-5.31808257 -0.61901899 -3.39967987 0.01557438 0 0 Z " fill="#433001" transform="translate(244.421142578125,44.854736328125)"/>
<path d="M0 0 C59.71428571 0 59.71428571 0 68 6 C67.34 6.33 66.68 6.66 66 7 C64.32700041 6.34938905 62.66140763 5.67966676 61 5 C59.0075675 4.62406934 57.0081326 4.28020455 55 4 C55 3.34 55 2.68 55 2 C37.18 1.67 19.36 1.34 1 1 C1.33 41.59 1.66 82.18 2 124 C26.255 124.495 26.255 124.495 51 125 C51 125.33 51 125.66 51 126 C34.17 126 17.34 126 0 126 C0 84.42 0 42.84 0 0 Z " fill="#E7BE4B" transform="translate(241,47)"/>
<path d="M0 0 C0 0.99 0 1.98 0 3 C-1.06541016 3.30744141 -1.06541016 3.30744141 -2.15234375 3.62109375 C-3.07144531 3.89050781 -3.99054687 4.15992188 -4.9375 4.4375 C-6.31228516 4.83775391 -6.31228516 4.83775391 -7.71484375 5.24609375 C-9.9402493 5.79026051 -9.9402493 5.79026051 -11 7 C-12.57441461 7.37319457 -14.16020785 7.69897427 -15.75 8 C-16.61109375 8.165 -17.4721875 8.33 -18.359375 8.5 C-20.15365183 8.83974473 -21.95537232 9.14188698 -23.76171875 9.41015625 C-24.86966797 9.70212891 -24.86966797 9.70212891 -26 10 C-26.71727778 11.64551962 -27.38325228 13.31422289 -28 15 C-30 16 -30 16 -32 17 C-34.13684716 21.07250463 -34.24804639 24.60827104 -34.24291992 29.15771484 C-34.24481827 29.85921158 -34.24671661 30.56070831 -34.24867249 31.28346252 C-34.25236422 33.59273611 -34.24169624 35.90169204 -34.23046875 38.2109375 C-34.22927556 39.82369958 -34.22882408 41.43646236 -34.2290802 43.04922485 C-34.22751792 46.42674115 -34.21924972 49.80415109 -34.20581055 53.18164062 C-34.18884851 57.4978186 -34.18499567 61.8138795 -34.18575573 66.1300869 C-34.18548291 69.46049098 -34.17998339 72.79086978 -34.17275429 76.12126541 C-34.16958531 77.71197951 -34.16760438 79.30269646 -34.16686058 80.89341354 C-34.16467655 83.12348993 -34.15588759 85.35344589 -34.14526367 87.58349609 C-34.14145187 88.84970795 -34.13764008 90.1159198 -34.13371277 91.42050171 C-33.99955156 95.01200479 -33.55312452 98.45153291 -33 102 C-32.89248014 104.6793948 -32.9529179 107.31632049 -33 110 C-36.59801211 104.60298183 -36.15123615 98.27326258 -36.16113281 91.95678711 C-36.16609772 91.18511703 -36.17106262 90.41344696 -36.17617798 89.61839294 C-36.19067941 87.08803389 -36.19757898 84.55773737 -36.203125 82.02734375 C-36.20736607 80.72429889 -36.20736607 80.72429889 -36.21169281 79.39492989 C-36.2266315 74.80389226 -36.23589636 70.21288567 -36.24023438 65.62182617 C-36.24573197 60.88849804 -36.26980218 56.15545567 -36.29820633 51.42221737 C-36.31684635 47.7718879 -36.32203889 44.12162739 -36.32357025 40.47125435 C-36.32659082 38.726186 -36.33459919 36.9811187 -36.34775543 35.23609734 C-36.36485566 32.79511616 -36.36292698 30.35483552 -36.35644531 27.91381836 C-36.3656601 27.19832825 -36.37487488 26.48283813 -36.3843689 25.7456665 C-36.33384214 19.6555476 -34.6744884 15.75821282 -30.5 11.375 C-26.18034789 8.06677863 -21.12937243 6.62683055 -16 5 C-15.31856934 4.78279297 -14.63713867 4.56558594 -13.93505859 4.34179688 C-9.29832136 2.86707823 -4.65244367 1.42433658 0 0 Z " fill="#CD6037" transform="translate(52,34)"/>
<path d="M0 0 C0 23.66666667 0 47.33333333 0 71 C0.66 71.33 1.32 71.66 2 72 C2 72.66 2 73.32 2 74 C2.66 74 3.32 74 4 74 C4.00808685 73.14444519 4.01617371 72.28889038 4.02450562 71.40740967 C4.10245065 63.34407909 4.18974111 55.28091549 4.28752708 47.21780014 C4.33747012 43.07248022 4.3838003 38.92718554 4.421875 34.78173828 C4.45875305 30.78105013 4.50511977 26.78057412 4.55806351 22.78006744 C4.57659408 21.25389579 4.591707 19.72767869 4.60334396 18.2014389 C4.62022952 16.06343366 4.64926929 13.92591285 4.68115234 11.78808594 C4.69447601 10.5711908 4.70779968 9.35429565 4.7215271 8.1005249 C4.98520354 5.1647442 5.46099476 3.4743888 7 1 C7.99 1 8.98 1 10 1 C8.125 4.875 8.125 4.875 7 6 C6.87593185 8.20794411 6.82197722 10.41984486 6.79467773 12.63110352 C6.77982834 13.67007782 6.77982834 13.67007782 6.76467896 14.7300415 C6.7329797 17.02962779 6.70827349 19.32923477 6.68359375 21.62890625 C6.66303148 23.21932018 6.64203521 24.80972855 6.62062073 26.40013123 C6.56532491 30.59389763 6.5159489 34.78771395 6.46777344 38.98156738 C6.41761309 43.25793928 6.36189856 47.53423834 6.30664062 51.81054688 C6.19896726 60.20696973 6.09754284 68.60345338 6 77 C3.0280615 75.87548273 0.66559313 74.77706209 -2 73 C-2.3742218 70.07751465 -2.3742218 70.07751465 -2.37231445 66.28710938 C-2.37779045 65.25273491 -2.37779045 65.25273491 -2.38337708 64.19746399 C-2.39149879 61.91264396 -2.37785981 59.62852958 -2.36328125 57.34375 C-2.36276283 55.75956218 -2.36327982 54.17537371 -2.36479187 52.59118652 C-2.36470207 49.26886407 -2.35425794 45.94678392 -2.33618164 42.62451172 C-2.31349407 38.36036759 -2.31294952 34.0965777 -2.31969929 29.83238983 C-2.32303667 26.56049436 -2.31641358 23.28868003 -2.30657005 20.01679993 C-2.30271376 18.44428431 -2.30157161 16.87175966 -2.3031559 15.29924011 C-2.3035257 13.10361454 -2.29093085 10.90844749 -2.2746582 8.71289062 C-2.27005081 7.46205688 -2.26544342 6.21122314 -2.26069641 4.92248535 C-2 2 -2 2 0 0 Z " fill="#FCB632" transform="translate(72,142)"/>
<path d="M0 0 C6.75 0.75 6.75 0.75 9 3 C10.80414085 6.69352886 11.2645441 9.71355331 11.31884766 13.80224609 C11.33871735 14.9488974 11.35858704 16.09554871 11.37905884 17.27694702 C11.39061005 18.51328888 11.40216125 19.74963074 11.4140625 21.0234375 C11.43342865 22.31577301 11.4527948 23.60810852 11.4727478 24.93960571 C11.52407146 28.38632058 11.5635977 31.83307705 11.60089111 35.27996826 C11.64024508 38.69977811 11.69200768 42.11939768 11.7421875 45.5390625 C11.8539068 53.3591555 11.93044517 61.17942017 12 69 C12.01226624 70.15473816 12.02453247 71.30947632 12.03717041 72.49920654 C12.06909765 75.66093067 12.0911019 78.82254616 12.109375 81.984375 C12.11949615 82.89359711 12.12961731 83.80281921 12.14004517 84.73959351 C12.16003289 91.67171295 11.59938678 98.48960926 9 105 C8.01 105.495 8.01 105.495 7 106 C7.14006973 104.91316925 7.28013947 103.8263385 7.42445374 102.70657349 C8.78610919 91.6654989 9.33957969 80.79776622 9.37109375 69.6796875 C9.38009671 67.99821918 9.38921896 66.31675149 9.39845276 64.63528442 C9.41474672 61.15136795 9.42260924 57.66754549 9.42553711 54.18359375 C9.43097092 49.7363801 9.46893764 45.29005312 9.51428127 40.84309196 C9.54407481 37.38740806 9.5512608 33.93194023 9.55226326 30.47613907 C9.55644333 28.83596763 9.56878781 27.19579421 9.58978081 25.5557518 C9.94109522 13.31681694 9.94109522 13.31681694 4 3 C1.87860167 1.04591976 1.87860167 1.04591976 0 0 Z " fill="#3D0A00" transform="translate(189,43)"/>
<path d="M0 0 C8.58 0 17.16 0 26 0 C26.66 1.32 27.32 2.64 28 4 C27.04996094 3.68289062 26.09992188 3.36578125 25.12109375 3.0390625 C20.473882 1.71128771 15.86883098 1.55104997 11.0625 1.375 C8.071875 1.25125 5.08125 1.1275 2 1 C2 10.9 2 20.8 2 31 C5.17625 30.896875 8.3525 30.79375 11.625 30.6875 C12.6145166 30.66260498 13.6040332 30.63770996 14.62353516 30.61206055 C19.78884341 30.39749195 23.49240609 29.79291118 28 27 C27 30 27 30 24 32 C19.34106395 33.36317018 14.56088739 33.14790899 9.75 33.125 C8.50863281 33.13080078 8.50863281 33.13080078 7.2421875 33.13671875 C1.12669335 33.12669335 1.12669335 33.12669335 0 32 C-0.0883967 29.6243148 -0.11530305 27.27791326 -0.09765625 24.90234375 C-0.0962413 24.19348526 -0.09482635 23.48462677 -0.09336853 22.75428772 C-0.08775443 20.48198288 -0.07519963 18.20977525 -0.0625 15.9375 C-0.05748681 14.40039204 -0.05292359 12.86328255 -0.04882812 11.32617188 C-0.0386297 7.55071333 -0.01905732 3.77546596 0 0 Z " fill="#DBB436" transform="translate(264,67)"/>
<path d="M0 0 C1.06347656 -0.00257812 2.12695312 -0.00515625 3.22265625 -0.0078125 C5.9375 0.125 5.9375 0.125 7.9375 1.125 C8.2675 2.115 8.5975 3.105 8.9375 4.125 C9.9275 4.785 10.9175 5.445 11.9375 6.125 C13.54601554 13.33633139 13.24179808 19.51640383 9.9375 26.125 C8.2875 26.455 6.6375 26.785 4.9375 27.125 C4.6075 36.365 4.2775 45.605 3.9375 55.125 C2.6175 55.785 1.2975 56.445 -0.0625 57.125 C0.5975 56.135 1.2575 55.145 1.9375 54.125 C2.20894099 51.08595147 2.20894099 51.08595147 2.140625 47.62890625 C2.15222656 46.34822266 2.16382812 45.06753906 2.17578125 43.74804688 C2.18609945 41.71560619 2.18747031 39.6844811 2.16748047 37.65209961 C2.15269997 35.68605481 2.17742654 33.71983865 2.203125 31.75390625 C2.20086914 30.57900635 2.19861328 29.40410645 2.19628906 28.19360352 C2.9375 25.125 2.9375 25.125 5.92089844 22.89819336 C6.91637695 22.31303955 7.91185547 21.72788574 8.9375 21.125 C10.28770977 17.0743707 10.49478804 13.36038911 9.9375 9.125 C8.14356332 6.25470131 6.95486724 4.63368362 3.9375 3.125 C-0.86233665 2.60678755 -4.78701172 2.36513464 -9 4.875 C-10.84194859 6.88439846 -12.53212441 8.86970966 -14.0625 11.125 C-14.375 8.9375 -14.375 8.9375 -14.0625 6.125 C-9.68019746 0.9136132 -6.6339029 -0.01612127 0 0 Z " fill="#D45E0F" transform="translate(93.0625,74.875)"/>
<path d="M0 0 C1.2375 0.99 1.2375 0.99 2.5 2 C2.17 2.99 1.84 3.98 1.5 5 C0.88125 4.34 0.2625 3.68 -0.375 3 C-4.71569465 0.22195543 -8.46987401 0.01710182 -13.5 1 C-16.32424288 3.19022918 -17.91508603 4.83017207 -19.5 8 C-20.1813685 13.09879792 -20.1813685 13.09879792 -18.34765625 17.6484375 C-17.88230469 18.13570312 -17.41695312 18.62296875 -16.9375 19.125 C-14.5 22 -14.5 22 -14.375 24.875 C-16.30421153 30.2339209 -18.71072181 34.80714788 -23.5 38 C-23.335 37.401875 -23.17 36.80375 -23 36.1875 C-22.3885876 33.88655664 -22.3885876 33.88655664 -22.5 31 C-21.19254251 29.31295807 -19.85827971 27.64639965 -18.5 26 C-18.17 25.01 -17.84 24.02 -17.5 23 C-18.16 23 -18.82 23 -19.5 23 C-19.9021875 21.948125 -19.9021875 21.948125 -20.3125 20.875 C-21.4076211 17.91017961 -21.4076211 17.91017961 -23.4375 15.3125 C-24.7230768 11.30452528 -24.1664353 10.49162683 -22.375 6.8125 C-18.46204542 -0.38335715 -18.46204542 -0.38335715 -14.3125 -1.6875 C-4.20151515 -2.81094276 -4.20151515 -2.81094276 0 0 Z " fill="#D65414" transform="translate(169.5,77)"/>
<path d="M0 0 C0 3 0 3 -1.4375 4.75 C-3.51478758 7.74129412 -3.65603142 10.42272676 -4 14 C-5.32 14 -6.64 14 -8 14 C-8.33 36.77 -8.66 59.54 -9 83 C-9.33 83 -9.66 83 -10 83 C-10.23272098 73.80277177 -10.40988707 64.60657159 -10.51812172 55.40703106 C-10.57009731 51.13413981 -10.64046547 46.86327672 -10.75439453 42.59155273 C-10.86385416 38.46108724 -10.92300344 34.33255909 -10.94877243 30.20075417 C-10.96711001 28.63257172 -11.0029215 27.06448367 -11.05730057 25.49713707 C-11.30434505 18.07469895 -11.39609567 11.83094228 -6.35390282 5.92636585 C-4.33997404 3.82285025 -2.22594961 1.87611696 0 0 Z " fill="#D35410" transform="translate(89,136)"/>
<path d="M0 0 C0.66 0 1.32 0 2 0 C2 11.22 2 22.44 2 34 C4.97 33.87625 7.94 33.7525 11 33.625 C11.91910156 33.59100098 12.83820313 33.55700195 13.78515625 33.52197266 C19.1104414 33.26963818 23.87090976 32.46036597 29 31 C29 31.66 29 32.32 29 33 C25.57757307 35.28161795 24.32840656 35.24667895 20.30859375 35.23046875 C19.19935547 35.22853516 18.09011719 35.22660156 16.94726562 35.22460938 C15.20993164 35.20624023 15.20993164 35.20624023 13.4375 35.1875 C11.69436523 35.1865332 11.69436523 35.1865332 9.91601562 35.18554688 C1.2806713 35.14033565 1.2806713 35.14033565 -1 34 C-0.67 22.78 -0.34 11.56 0 0 Z " fill="#E0B83A" transform="translate(264,118)"/>
<path d="M0 0 C0.66 1.32 1.32 2.64 2 4 C1.071875 4.391875 0.14375 4.78375 -0.8125 5.1875 C-5.07575444 7.6117035 -6.40887066 10.2363425 -7.94921875 14.83203125 C-10.76873243 26.01299666 -10.76873243 26.01299666 -7.8671875 36.92578125 C-5.99080641 41.41388196 -5.09469907 46.27183169 -4 51 C-10.22786702 45.16464561 -12.15300931 38.87532587 -12.52807617 30.47436523 C-12.6688387 20.86757208 -11.43998507 12.36651089 -5.109375 4.71484375 C-3.46931221 3.03811289 -1.81383182 1.48451941 0 0 Z " fill="#DCB03D" transform="translate(354,52)"/>
<path d="M0 0 C3.12001504 1.68818449 5.39047471 3.78094941 7 7 C7.43546696 11.26255164 7.42778484 14.94179539 5.8125 18.9375 C3.71802222 21.32087126 2.01488424 22.10368306 -1 23 C-0.34 21.68 0.32 20.36 1 19 C1.66 19 2.32 19 3 19 C5.09972674 15.58794404 5.33083127 12.9699753 5 9 C4.05592658 6.16777975 3.46275992 5.27221172 0.875 3.75 C0.25625 3.5025 -0.3625 3.255 -1 3 C-1 2.34 -1 1.68 -1 1 C-2.45903258 1.30921884 -3.91720722 1.62248799 -5.375 1.9375 C-6.18710938 2.11152344 -6.99921875 2.28554687 -7.8359375 2.46484375 C-10.029463 2.92330693 -10.029463 2.92330693 -12 4 C-12.65213292 6.02463255 -12.65213292 6.02463255 -13 8 C-13.99 8 -14.98 8 -16 8 C-15.71572583 9.58467728 -15.42225182 11.1677057 -15.125 12.75 C-14.96257812 13.63171875 -14.80015625 14.5134375 -14.6328125 15.421875 C-14.03203736 17.86947744 -13.22002883 19.80599857 -12 22 C-15.25775431 19.32697082 -17.31192188 17.22261914 -18.0625 13.0625 C-18.35985547 8.68476664 -16.8603982 6.32424655 -14 3 C-9.67789539 -0.84492958 -5.57304199 -0.96540885 0 0 Z " fill="#FCAB31" transform="translate(97,77)"/>
<path d="M0 0 C-0.33 0.99 -0.66 1.98 -1 3 C-2.32 3 -3.64 3 -5 3 C-5.33 3.66 -5.66 4.32 -6 5 C-6.99 5 -7.98 5 -9 5 C-9 5.99 -9 6.98 -9 8 C-9.66 8 -10.32 8 -11 8 C-11.33 8.66 -11.66 9.32 -12 10 C-12.99 9.34 -13.98 8.68 -15 8 C-21.20330875 7.6122932 -26.95737621 9.89461925 -32.6171875 12.16015625 C-35 13 -35 13 -38 13 C-38 12.34 -38 11.68 -38 11 C-36.61494263 10.55346069 -36.61494263 10.55346069 -35.2019043 10.09790039 C-31.77461028 8.99290575 -28.34737875 7.88771742 -24.92016602 6.7824707 C-23.43711014 6.30422775 -21.95403734 5.82603726 -20.47094727 5.34790039 C-18.33865984 4.66045721 -16.20643341 3.97282511 -14.07421875 3.28515625 C-13.41161545 3.07157974 -12.74901215 2.85800323 -12.06632996 2.63795471 C-3.88857079 0 -3.88857079 0 0 0 Z " fill="#C7542A" transform="translate(93,22)"/>
<path d="M0 0 C0.66 0.33 1.32 0.66 2 1 C-6.42281269 10.23792359 -15.83554283 14.62830214 -28.34765625 15.28125 C-37.29680853 15.54804997 -45.42711777 14.82400826 -54 12 C-50.51956059 10.82617256 -48.06542019 11.20428859 -44.5 11.9375 C-33.69042379 13.86356994 -23.75371929 12.94260736 -13 11 C-13 10.34 -13 9.68 -13 9 C-11.68 9 -10.36 9 -9 9 C-9 8.34 -9 7.68 -9 7 C-8.34 7 -7.68 7 -7 7 C-6.67 5.68 -6.34 4.36 -6 3 C-4.35 3 -2.7 3 -1 3 C-0.67 2.01 -0.34 1.02 0 0 Z " fill="#DCB641" transform="translate(418,160)"/>
<path d="M0 0 C0.99 0.33 1.98 0.66 3 1 C2.27087654 1.55304558 2.27087654 1.55304558 1.52702332 2.11726379 C-0.63948562 4.78845078 -0.39830212 6.70987206 -0.43237305 10.1237793 C-0.45216721 11.38486008 -0.47196136 12.64594086 -0.49235535 13.94523621 C-0.49912512 15.32156221 -0.50557198 16.69788983 -0.51171875 18.07421875 C-0.52856379 19.48242261 -0.5467138 20.89061141 -0.56611633 22.29878235 C-0.61364215 26.00260718 -0.64343444 29.706371 -0.66955566 33.41040039 C-0.69934842 37.19104058 -0.74588307 40.97147045 -0.79101562 44.75195312 C-0.87707794 52.16786445 -0.94440981 59.58379102 -1 67 C-3.3431213 66.74438677 -5.67843403 66.40729228 -8 66 C-8.33 65.34 -8.66 64.68 -9 64 C-6.03 63.505 -6.03 63.505 -3 63 C-3 43.2 -3 23.4 -3 3 C-2.34 3 -1.68 3 -1 3 C-0.67 2.01 -0.34 1.02 0 0 Z " fill="#FEB330" transform="translate(108,167)"/>
<path d="M0 0 C3.073125 -0.020625 6.14625 -0.04125 9.3125 -0.0625 C10.27712158 -0.071604 11.24174316 -0.08070801 12.2355957 -0.09008789 C12.99960693 -0.09258545 13.76361816 -0.09508301 14.55078125 -0.09765625 C15.72120972 -0.10551147 15.72120972 -0.10551147 16.9152832 -0.11352539 C19 0 19 0 22 1 C22 1.66 22 2.32 22 3 C20.1128125 2.7525 20.1128125 2.7525 18.1875 2.5 C12.81399596 1.9820719 7.39840672 2 2 2 C1.67 10.58 1.34 19.16 1 28 C8.78040135 28.07553788 16.29282199 28.06305904 24 27 C20.99833199 29.61289776 19.20372689 30.36930244 15.234375 30.29296875 C14.43225586 30.28547607 13.63013672 30.2779834 12.80371094 30.27026367 C11.79598633 30.24295166 10.78826172 30.21563965 9.75 30.1875 C4.92375 30.0946875 4.92375 30.0946875 0 30 C0 20.1 0 10.2 0 0 Z " fill="#241300" transform="translate(266,68)"/>
<path d="M0 0 C0 0.99 0 1.98 0 3 C-1.06541016 3.30744141 -1.06541016 3.30744141 -2.15234375 3.62109375 C-3.07144531 3.89050781 -3.99054687 4.15992188 -4.9375 4.4375 C-6.31228516 4.83775391 -6.31228516 4.83775391 -7.71484375 5.24609375 C-9.9402493 5.79026051 -9.9402493 5.79026051 -11 7 C-12.57441461 7.37319457 -14.16020785 7.69897427 -15.75 8 C-16.61109375 8.165 -17.4721875 8.33 -18.359375 8.5 C-20.15365183 8.83974473 -21.95537232 9.14188698 -23.76171875 9.41015625 C-24.86966797 9.70212891 -24.86966797 9.70212891 -26 10 C-26.71727778 11.64551962 -27.38325228 13.31422289 -28 15 C-30 16 -30 16 -32 17 C-33.28254644 19.53770003 -33.28254644 19.53770003 -34 22 C-34.66 22 -35.32 22 -36 22 C-35.0259334 16.58851889 -33.5269807 13.72146251 -29.15625 10.3359375 C-25.03914365 7.78512161 -20.60398715 6.42635487 -16 5 C-14.57793346 4.54878031 -13.15607083 4.09691763 -11.734375 3.64453125 C-7.8291863 2.40879921 -3.91659499 1.19905794 0 0 Z " fill="#B8542E" transform="translate(52,34)"/>
<path d="M0 0 C0.99 0.33 1.98 0.66 3 1 C2.67 1.99 2.34 2.98 2 4 C1.34 4 0.68 4 0 4 C0 26.44 0 48.88 0 72 C-2.76027021 69.23972979 -2.25346878 67.64294722 -2.25878906 63.77783203 C-2.26509338 62.46952423 -2.27139771 61.16121643 -2.27789307 59.81326294 C-2.27431265 58.37811143 -2.27021053 56.94296115 -2.265625 55.5078125 C-2.26697194 54.04051652 -2.26891271 52.57322097 -2.27142334 51.10592651 C-2.27437511 48.02744303 -2.27007659 44.94907549 -2.26074219 41.87060547 C-2.24936758 37.92727449 -2.25589399 33.98421635 -2.26788712 30.04089546 C-2.27512148 27.00912428 -2.27281021 23.97741753 -2.26763153 20.94564438 C-2.26629835 19.49200279 -2.26793115 18.03835534 -2.27259064 16.58472061 C-2.27767922 14.55013391 -2.26854599 12.5155267 -2.25878906 10.48095703 C-2.25719788 9.32338898 -2.25560669 8.16582092 -2.25396729 6.97317505 C-2.00808206 4.09461601 -1.50087394 2.43315884 0 0 Z " fill="#D45311" transform="translate(69,140)"/>
<path d="M0 0 C0.66 0.33 1.32 0.66 2 1 C1.0409375 1.6496875 1.0409375 1.6496875 0.0625 2.3125 C-2.26746003 3.91239177 -2.26746003 3.91239177 -3 7 C-5.85478326 8.90318884 -7.41941308 9.4619099 -10.6875 10.125 C-11.49574219 10.29257813 -12.30398437 10.46015625 -13.13671875 10.6328125 C-13.75160156 10.75398437 -14.36648437 10.87515625 -15 11 C-15 11.66 -15 12.32 -15 13 C-16.051875 13.433125 -17.10375 13.86625 -18.1875 14.3125 C-20.54145526 15.31114769 -22.55481473 16.34045449 -24.75 17.6875 C-27 19 -27 19 -30 19 C-30.33 19.99 -30.66 20.98 -31 22 C-31.33 21.34 -31.66 20.68 -32 20 C-34.32156597 19.59270772 -36.6568787 19.25561323 -39 19 C-39 18.67 -39 18.34 -39 18 C-38.34257813 17.97164062 -37.68515625 17.94328125 -37.0078125 17.9140625 C-23.35210642 16.54479116 -10.93362789 7.86453936 0 0 Z " fill="#300D01" transform="translate(142,216)"/>
<path d="M0 0 C8.58 0 17.16 0 26 0 C26.66 3.3 27.32 6.6 28 10 C28.33 10.99 28.66 11.98 29 13 C28.01 13.495 28.01 13.495 27 14 C27 13.01 27 12.02 27 11 C26.01 11 25.02 11 24 11 C23.67 8.03 23.34 5.06 23 2 C23.66 1.67 24.32 1.34 25 1 C17.08 1 9.16 1 1 1 C1.66 2.98 2.32 4.96 3 7 C3.1953125 9.5546875 3.1953125 9.5546875 3.125 11.875 C3.10695313 12.65617188 3.08890625 13.43734375 3.0703125 14.2421875 C3.04710937 14.82226562 3.02390625 15.40234375 3 16 C-0.61588807 10.57616789 0 6.75367849 0 0 Z " fill="#DCB84F" transform="translate(340,134)"/>
<path d="M0 0 C3.41445858 2.63844526 4.37646111 5.88875458 5 10 C5.85067571 20.46204151 5.04407619 29.30177276 -1.75 37.625 C-2.4925 38.40875 -3.235 39.1925 -4 40 C-4.33 39.34 -4.66 38.68 -5 38 C-4.0625 35.875 -4.0625 35.875 -3 34 C-2.34 34.33 -1.68 34.66 -1 35 C-1.66 33.68 -2.32 32.36 -3 31 C-1.35 30.34 0.3 29.68 2 29 C3.42059271 20.47644377 3.07902767 13.34785157 1 5 C0.66013333 3.33465333 0.32297514 1.66870487 0 0 Z " fill="#DFB846" transform="translate(317,62)"/>
<path d="M0 0 C2.24893954 -0.10823773 4.49937575 -0.18569645 6.75 -0.25 C8.00296875 -0.29640625 9.2559375 -0.3428125 10.546875 -0.390625 C14 0 14 0 16.453125 2.015625 C16.96359375 2.67046875 17.4740625 3.3253125 18 4 C17.47277344 3.84015625 16.94554687 3.6803125 16.40234375 3.515625 C13.42109336 2.87574687 10.61119088 2.79229398 7.5625 2.75 C6.45003906 2.72421875 5.33757812 2.6984375 4.19140625 2.671875 C-0.24770982 3.12828351 -2.84447587 4.72493889 -5.8125 8 C-7.63063306 12.59317825 -7.23074239 17.12022573 -7 22 C-7.66 21.67 -8.32 21.34 -9 21 C-9.02701408 18.89590361 -9.04640223 16.79170822 -9.0625 14.6875 C-9.07410156 13.51574219 -9.08570313 12.34398438 -9.09765625 11.13671875 C-9 8 -9 8 -8 5 C-7.34 5 -6.68 5 -6 5 C-5.67 4.01 -5.34 3.02 -5 2 C-3.35 2 -1.7 2 0 2 C0 1.34 0 0.68 0 0 Z " fill="#DAAF3A" transform="translate(376,63)"/>
<path d="M0 0 C4.55347736 3.68614834 6.07648353 9.4256213 7 15 C7.79777601 23.89324082 6.38006327 31.73488178 3 40 C2.34 40.66 1.68 41.32 1 42 C1.51248915 39.1813097 2.14680733 36.54450655 3.02734375 33.8125 C4.04810961 29.81142578 4.26598184 26.15532793 4.1875 22.0625 C4.18105469 21.36318359 4.17460937 20.66386719 4.16796875 19.94335938 C4.09754967 15.22088016 3.77581674 10.65490043 3 6 C2.34 6 1.68 6 1 6 C0.67 4.02 0.34 2.04 0 0 Z " fill="#CDA93B" transform="translate(420,117)"/>
<path d="M0 0 C3.66166455 3.66166455 4.12030817 9.22555634 4.3125 14.25 C4.0991179 22.45809811 2.19408205 30.55217401 -3 37 C-3.97608217 34.07175348 -4.08226668 32.04386724 -4 29 C-3.01 28.67 -2.02 28.34 -1 28 C1.03871863 23.48763609 1.26994908 19.40747369 1.25 14.5 C1.25515625 13.2315625 1.2603125 11.963125 1.265625 10.65625 C1.00698139 7.09609683 0.28821239 4.31254615 -1 1 C-0.67 0.67 -0.34 0.34 0 0 Z " fill="#D7B03A" transform="translate(322,122)"/>
<path d="M0 0 C1.65 0 3.3 0 5 0 C5 1.98 5 3.96 5 6 C7.64 6.66 10.28 7.32 13 8 C13 8.66 13 9.32 13 10 C14.2065625 10.433125 14.2065625 10.433125 15.4375 10.875 C18 12 18 12 19 14 C12.95523473 12.20513796 7.33824153 9.50677707 1.625 6.875 C0.60277344 6.40707031 -0.41945313 5.93914062 -1.47265625 5.45703125 C-3.98303821 4.30741708 -6.49209231 3.15499936 -9 2 C-9 1.67 -9 1.34 -9 1 C-5.80097361 0.91113816 -3.07322544 1.08941469 0 2 C0 1.34 0 0.68 0 0 Z " fill="#E9B62C" transform="translate(376,114)"/>
<path d="M0 0 C0.33 0 0.66 0 1 0 C3.00500249 28.38971359 3.00500249 28.38971359 -2.7878418 35.23339844 C-5.95129067 38.25045232 -9.37613215 40.5840881 -13 43 C-13 41.35 -13 39.7 -13 38 C-11.6078125 37.4121875 -11.6078125 37.4121875 -10.1875 36.8125 C-6.7104894 34.83537633 -5.85057552 33.43678311 -4 30 C-3.01 29.34 -2.02 28.68 -1 28 C-0.48853802 25.09386566 -0.48853802 25.09386566 -0.48828125 21.6796875 C-0.45283203 20.42285156 -0.41738281 19.16601562 -0.38085938 17.87109375 C-0.35830078 16.55238281 -0.33574219 15.23367187 -0.3125 13.875 C-0.27933471 12.53512241 -0.24484578 11.19527689 -0.20898438 9.85546875 C-0.12626673 6.5703967 -0.05719307 3.28559968 0 0 Z " fill="#FCB331" transform="translate(95,100)"/>
<path d="M0 0 C0 4.19060594 -2.34356868 6.02617689 -5 9 C-6.0652766 10.22676107 -7.12778111 11.45593481 -8.1875 12.6875 C-8.67605469 13.24824219 -9.16460937 13.80898437 -9.66796875 14.38671875 C-11.18918517 16.17326073 -11.18918517 16.17326073 -13 19 C-13.99 19 -14.98 19 -16 19 C-16.268125 19.556875 -16.53625 20.11375 -16.8125 20.6875 C-17.204375 21.450625 -17.59625 22.21375 -18 23 C-18.6496875 24.299375 -18.6496875 24.299375 -19.3125 25.625 C-21.28842651 28.4059336 -22.77947903 29.04254782 -26 30 C-24.63389732 26.96273042 -23.06926193 24.79084974 -20.76953125 22.390625 C-19.81143555 21.38128906 -19.81143555 21.38128906 -18.83398438 20.3515625 C-18.16689453 19.65804687 -17.49980469 18.96453125 -16.8125 18.25 C-12.24894854 13.47302872 -7.76657222 8.65956296 -3.4519043 3.65527344 C-2.3468152 2.39539382 -1.18501447 1.18501447 0 0 Z " fill="#D15C0B" transform="translate(153,121)"/>
<path d="M0 0 C0.66 0 1.32 0 2 0 C3.88202829 5.64608487 3.88603681 11.09161303 1.375 16.5 C-1 19 -1 19 -4.0625 19.8125 C-7.10534796 20.66471792 -7.10534796 20.66471792 -7.98046875 22.97265625 C-8.48227114 24.5391967 -8.94415405 26.1192572 -9.359375 27.7109375 C-9.99881183 29.99575447 -10.87728339 31.9163141 -12 34 C-12.66 33.67 -13.32 33.34 -14 33 C-13.72285156 32.32453125 -13.44570312 31.6490625 -13.16015625 30.953125 C-12.61681641 29.61507812 -12.61681641 29.61507812 -12.0625 28.25 C-11.70285156 27.36828125 -11.34320313 26.4865625 -10.97265625 25.578125 C-9.95643921 23.09484481 -9.95643921 23.09484481 -9.55078125 20.765625 C-9.36902344 20.18296875 -9.18726563 19.6003125 -9 19 C-7.01753602 17.96567096 -5.01586684 16.96761608 -3 16 C0.33972657 12.77543642 0.68144186 9.53945347 1 5 C0.64025105 2.18762459 0.64025105 2.18762459 0 0 Z " fill="#D15C0E" transform="translate(172,82)"/>
<path d="M0 0 C0.66 0.66 1.32 1.32 2 2 C1.67 2.66 1.34 3.32 1 4 C2.65 3.34 4.3 2.68 6 2 C4.5592094 4.96162513 3.25604002 6.80460104 0.625 8.8125 C-4.82550283 10.59800955 -10.31896873 10.72523803 -16 10 C-18.90234375 8.4765625 -18.90234375 8.4765625 -21 7 C-20.34 6.67 -19.68 6.34 -19 6 C-18.113125 6.309375 -17.22625 6.61875 -16.3125 6.9375 C-10.76582577 8.71662192 -6.24564638 8.5433437 -1 6 C-1.020625 5.195625 -1.04125 4.39125 -1.0625 3.5625 C-1 1 -1 1 0 0 Z " fill="#170F03" transform="translate(393,144)"/>
<path d="M0 0 C0.99 0 1.98 0 3 0 C3.66 1.32 4.32 2.64 5 4 C5.99 4 6.98 4 8 4 C7.67 4.99 7.34 5.98 7 7 C6.84969355 8.74800829 6.72773856 10.49855209 6.625 12.25 C6.19521085 17.16652743 5.5354627 20.74404475 3 25 C0.3125 26.4375 0.3125 26.4375 -2 27 C-1.0409375 25.63875 -1.0409375 25.63875 -0.0625 24.25 C3.42754635 18.75053302 3.58858894 13.40580963 3 7 C2.22368029 4.44988001 1.2402516 2.3771489 0 0 Z " fill="#E2B536" transform="translate(296,122)"/>
<path d="M0 0 C1.2375 0.99 1.2375 0.99 2.5 2 C2.17 2.99 1.84 3.98 1.5 5 C0.88125 4.34 0.2625 3.68 -0.375 3 C-4.74964318 0.20022837 -8.43615978 0.07551601 -13.5 1 C-16.89139831 3.11962394 -18.13125689 4.72208074 -19.23828125 8.55859375 C-19.75467425 11.03517242 -20.17370861 13.49193933 -20.5 16 C-20.83 16 -21.16 16 -21.5 16 C-21.55437607 14.41705218 -21.59296271 12.83355744 -21.625 11.25 C-21.64820313 10.36828125 -21.67140625 9.4865625 -21.6953125 8.578125 C-21.43397134 5.12842164 -20.28378994 3.00772992 -18.1875 0.3125 C-13.31352039 -3.47837303 -5.03744067 -3.37020262 0 0 Z " fill="#D05D0B" transform="translate(169.5,77)"/>
<path d="M0 0 C0.86625 -0.01675781 1.7325 -0.03351563 2.625 -0.05078125 C5.4116129 0.37546053 6.26608617 1.15081137 8 3.3125 C7.484375 3.1475 6.96875 2.9825 6.4375 2.8125 C1.92291602 1.88643149 -2.59363721 1.90246391 -7 3.3125 C-7.144375 3.951875 -7.28875 4.59125 -7.4375 5.25 C-8 7.3125 -8 7.3125 -9 8.3125 C-9.16017882 12.47714926 -8.98248196 16.25976192 -8 20.3125 C-10 18.8125 -10 18.8125 -12 16.3125 C-12.63505394 11.39083199 -12.54333004 9.324218 -10.1875 4.9375 C-6.9774768 1.08547216 -4.89695078 0.02186139 0 0 Z " fill="#FDAC31" transform="translate(161,76.6875)"/>
<path d="M0 0 C-6.50652302 2.61736323 -12.08167409 3.39871196 -19.0625 3.1875 C-19.92810547 3.17396484 -20.79371094 3.16042969 -21.68554688 3.14648438 C-23.79064174 3.1115933 -25.89540974 3.05780665 -28 3 C-28 2.01 -28 1.02 -28 0 C-27.07719238 0.00785522 -27.07719238 0.00785522 -26.13574219 0.01586914 C-23.34050524 0.03669371 -20.54528464 0.04967759 -17.75 0.0625 C-16.78191406 0.07087891 -15.81382812 0.07925781 -14.81640625 0.08789062 C-13.88183594 0.09111328 -12.94726562 0.09433594 -11.984375 0.09765625 C-10.69611816 0.10551147 -10.69611816 0.10551147 -9.38183594 0.11352539 C-7.0178517 0.08532467 -7.0178517 0.08532467 -4.87597656 -0.56860352 C-3 -1 -3 -1 0 0 Z " fill="#322103" transform="translate(294,149)"/>
<path d="M0 0 C0 0.33 0 0.66 0 1 C-0.90093384 1.03758423 -0.90093384 1.03758423 -1.82006836 1.07592773 C-4.52611437 1.1915528 -7.23178283 1.31442936 -9.9375 1.4375 C-11.35579102 1.49647461 -11.35579102 1.49647461 -12.80273438 1.55664062 C-13.70185547 1.59853516 -14.60097656 1.64042969 -15.52734375 1.68359375 C-16.77632446 1.73858032 -16.77632446 1.73858032 -18.05053711 1.79467773 C-20.00338858 1.79367103 -20.00338858 1.79367103 -21 3 C-22.99958364 3.04080783 -25.00045254 3.04254356 -27 3 C-27 3.66 -27 4.32 -27 5 C-28.98 5 -30.96 5 -33 5 C-24.55681744 -2.2631715 -10.40220299 -2.30334495 0 0 Z " fill="#D4A93F" transform="translate(393,44)"/>
<path d="M0 0 C0.33 0 0.66 0 1 0 C1.66994961 26.80829134 1.66994961 26.80829134 -2 36 C-2.99 36.495 -2.99 36.495 -4 37 C-3.34 31.06 -2.68 25.12 -2 19 C-1.34 19 -0.68 19 0 19 C0 12.73 0 6.46 0 0 Z " fill="#290B03" transform="translate(200,112)"/>
<path d="M0 0 C3.96 0.33 7.92 0.66 12 1 C12 1.66 12 2.32 12 3 C14.31 3 16.62 3 19 3 C19 3.33 19 3.66 19 4 C10.42 4 1.84 4 -7 4 C-7 3.67 -7 3.34 -7 3 C-5.02 3 -3.04 3 -1 3 C-0.67 2.01 -0.34 1.02 0 0 Z " fill="#1A1201" transform="translate(347,130)"/>
<path d="M0 0 C2.58355457 1.90958381 3.03701613 3.1401325 3.875 6.3125 C4.04167184 11.2293193 2.54610137 13.96195729 -0.375 17.8125 C-2.49876597 19.36448283 -4.42123065 19.65151766 -7 20 C-7.33 21.32 -7.66 22.64 -8 24 C-8 22.02 -8 20.04 -8 18 C-6.329375 17.4121875 -6.329375 17.4121875 -4.625 16.8125 C-1.89440008 15.63751458 -1.15273144 15.25233891 0.4375 12.625 C1.41586975 8.05927449 1.41311318 5.07212849 -1 1 C-0.67 0.67 -0.34 0.34 0 0 Z " fill="#FCAB31" transform="translate(170,81)"/>
<path d="M0 0 C4.96711448 0.98279805 10.01531906 0.5773982 15.06054688 0.45117188 C15.88232422 0.44021484 16.70410156 0.42925781 17.55078125 0.41796875 C18.6656189 0.39271118 18.6656189 0.39271118 19.80297852 0.36694336 C22.22384386 0.60822099 23.82520966 1.3760922 25.921875 2.578125 C22.06638571 3.96610115 18.91693093 3.14884728 14.921875 2.578125 C7.34593298 2.1539665 0.32406542 2.9745557 -7.078125 4.578125 C-7.078125 3.918125 -7.078125 3.258125 -7.078125 2.578125 C-2.95775463 -0.60044643 -2.95775463 -0.60044643 0 0 Z " fill="#241801" transform="translate(373.078125,41.421875)"/>
<path d="M0 0 C0.99 0.33 1.98 0.66 3 1 C2.47599609 2.03060547 2.47599609 2.03060547 1.94140625 3.08203125 C1.48636719 3.98308594 1.03132813 4.88414063 0.5625 5.8125 C0.11003906 6.70582031 -0.34242188 7.59914063 -0.80859375 8.51953125 C-2.51926492 12.08109254 -3.12253842 14.76146828 -3.09765625 18.66796875 C-3.09443359 19.56064453 -3.09121094 20.45332031 -3.08789062 21.37304688 C-3.07951172 22.30181641 -3.07113281 23.23058594 -3.0625 24.1875 C-3.05573242 25.59805664 -3.05573242 25.59805664 -3.04882812 27.03710938 C-3.03704626 29.35813712 -3.02059558 31.67903644 -3 34 C-3.66 34 -4.32 34 -5 34 C-5.05869332 30.50007197 -5.09382709 27.0002728 -5.125 23.5 C-5.14175781 22.51773438 -5.15851563 21.53546875 -5.17578125 20.5234375 C-5.21486352 14.6610974 -4.86476329 9.58124958 -3 4 C-2.34 3.67 -1.68 3.34 -1 3 C-0.67 2.01 -0.34 1.02 0 0 Z " fill="#180B00" transform="translate(346,57)"/>
<path d="M0 0 C6.22755346 0.31628555 10.66682214 0.63167714 16 4 C18.98787241 4.54463773 21.97067008 4.80860443 25 5 C25 5.99 25 6.98 25 8 C19.2073537 7.38574623 14.05390934 5.84466956 8.5625 3.9375 C7.73556641 3.65583984 6.90863281 3.37417969 6.05664062 3.08398438 C4.03587662 2.39482208 2.01766718 1.6981769 0 1 C0 0.67 0 0.34 0 0 Z " fill="#340C04" transform="translate(119,20)"/>
<path d="M0 0 C3.68722927 -0.11701204 7.37397542 -0.18752045 11.0625 -0.25 C12.10083984 -0.28351563 13.13917969 -0.31703125 14.20898438 -0.3515625 C20.72105857 -0.43425551 24.73320556 0.0553828 30 4 C30.33 4.66 30.66 5.32 31 6 C24.25 4.25 24.25 4.25 22 2 C19.77341846 1.62995706 19.77341846 1.62995706 17.2109375 1.5859375 C16.26992188 1.54726562 15.32890625 1.50859375 14.359375 1.46875 C13.37453125 1.4378125 12.3896875 1.406875 11.375 1.375 C10.38242187 1.33632812 9.38984375 1.29765625 8.3671875 1.2578125 C5.91164615 1.1633686 3.4561159 1.07780125 1 1 C1 3.31 1 5.62 1 8 C0.67 8 0.34 8 0 8 C0 5.36 0 2.72 0 0 Z " fill="#130400" transform="translate(266,118)"/>
<path d="M0 0 C1.32 0.33 2.64 0.66 4 1 C-8.48519362 8.85193622 -8.48519362 8.85193622 -15 9 C-14.01 8.67 -13.02 8.34 -12 8 C-10.77479736 4.99152582 -10.77479736 4.99152582 -10 2 C-9.01 2.99 -8.02 3.98 -7 5 C-5.68 3.68 -4.36 2.36 -3 1 C-2.01 1.33 -1.02 1.66 0 2 C0 1.34 0 0.68 0 0 Z " fill="#C75529" transform="translate(123,225)"/>
<path d="M0 0 C0 3 0 3 -2.20703125 5.328125 C-3.12871094 6.20984375 -4.05039063 7.0915625 -5 8 C-7.38375221 10.85582098 -9.6960451 13.76074241 -12.01171875 16.671875 C-14 19 -14 19 -16 20 C-17.13350534 22.01669827 -17.13350534 22.01669827 -18 24 C-18.29846301 20.96824418 -18.38842748 19.50546017 -16.49609375 17.04296875 C-15.81675781 16.43066406 -15.13742188 15.81835938 -14.4375 15.1875 C-10.90034768 11.87612336 -7.6880905 8.44472355 -4.54296875 4.76171875 C-3.08919634 3.10184189 -1.57858414 1.54066019 0 0 Z " fill="#FDAB33" transform="translate(117,148)"/>
<path d="M0 0 C4.58716587 4.44381694 8.78762713 9.20228499 13 14 C10 14 10 14 7 12 C7 11.01 7 10.02 7 9 C6.34 9 5.68 9 5 9 C4.67 9.66 4.34 10.32 4 11 C2.68 9.35 1.36 7.7 0 6 C0.66 5.67 1.32 5.34 2 5 C1.34 4.34 0.68 3.68 0 3 C0 2.01 0 1.02 0 0 Z " fill="#290D06" transform="translate(37,184)"/>
<path d="M0 0 C0.33 0 0.66 0 1 0 C1.06058594 1.03640625 1.12117188 2.0728125 1.18359375 3.140625 C1.26803371 4.51042873 1.35267997 5.88021975 1.4375 7.25 C1.47681641 7.93191406 1.51613281 8.61382812 1.55664062 9.31640625 C1.76666472 12.64448041 2.01934002 15.80255402 3 19 C-1.89517876 14.26273023 -1.89517876 14.26273023 -2.16796875 10.9765625 C-2.17441406 10.20054688 -2.18085938 9.42453125 -2.1875 8.625 C-2.20167969 7.85414062 -2.21585937 7.08328125 -2.23046875 6.2890625 C-1.97801607 3.78165112 -1.25193467 2.16738098 0 0 Z " fill="#271802" transform="translate(370,70)"/>
<path d="M0 0 C1.4540625 0.0309375 1.4540625 0.0309375 2.9375 0.0625 C-1.27339792 4.83485098 -6.29396586 8.34669455 -12.0625 11.0625 C-12.7225 10.7325 -13.3825 10.4025 -14.0625 10.0625 C-14.0625 9.0725 -14.0625 8.0825 -14.0625 7.0625 C-12.7425 7.3925 -11.4225 7.7225 -10.0625 8.0625 C-10.0625 7.4025 -10.0625 6.7425 -10.0625 6.0625 C-7.41511084 4.6018715 -6.16801666 4.0625 -3.0625 4.0625 C-3.3925 3.0725 -3.7225 2.0825 -4.0625 1.0625 C-3.0625 0.0625 -3.0625 0.0625 0 0 Z " fill="#C0572C" transform="translate(143.0625,212.9375)"/>
<path d="M0 0 C0.33 0.99 0.66 1.98 1 3 C1.66 3 2.32 3 3 3 C3.26618595 9.95041086 2.6120509 16.23514355 1 23 C0.34 23 -0.32 23 -1 23 C-0.83628906 22.01902344 -0.67257812 21.03804687 -0.50390625 20.02734375 C0.09159852 15.85881034 0.11249575 11.76598864 0.0625 7.5625 C0.05798828 6.83095703 0.05347656 6.09941406 0.04882812 5.34570312 C0.03718148 3.56376581 0.01925191 1.78187137 0 0 Z " fill="#170D00" transform="translate(426,128)"/>
<path d="M0 0 C0.99 1.485 0.99 1.485 2 3 C4.54045287 6.53678072 4.54045287 6.53678072 8 9 C8 15.93 8 22.86 8 30 C7.67 30 7.34 30 7 30 C6.96261719 28.83082031 6.92523438 27.66164063 6.88671875 26.45703125 C6.8210372 24.90882325 6.75459061 23.36064758 6.6875 21.8125 C6.66494141 21.04357422 6.64238281 20.27464844 6.61914062 19.48242188 C6.40236649 14.89075147 5.94139106 11.7402874 3 8 C2.34 7.67 1.68 7.34 1 7 C0.59270772 4.67843403 0.25561323 2.3431213 0 0 Z " fill="#D1570D" transform="translate(79,91)"/>
<path d="M0 0 C2.25137152 3.37705728 3.92665496 6.87577505 5.68359375 10.52734375 C6.94048579 12.88821219 8.33738307 14.91082246 10 17 C7 17 7 17 5 16 C4 14 3 12 2 10 C1.34 9.67 0.68 9.34 0 9 C0 6.03 0 3.06 0 0 Z " fill="#271804" transform="translate(341,147)"/>
<path d="M0 0 C6.66666667 3.33333333 13.33333333 6.66666667 20 10 C20 10.33 20 10.66 20 11 C17.69 10.67 15.38 10.34 13 10 C13 9.34 13 8.68 13 8 C12.42636719 7.87367188 11.85273437 7.74734375 11.26171875 7.6171875 C8.95671163 6.98818728 6.9613234 6.16514341 4.8125 5.125 C4.11769531 4.79757813 3.42289062 4.47015625 2.70703125 4.1328125 C1 3 1 3 0 0 Z " fill="#300F03" transform="translate(83,223)"/>
<path d="M0 0 C0 3 0 3 -1.375 4.6875 C-3 6 -3 6 -5 6 C-5.061875 6.61875 -5.12375 7.2375 -5.1875 7.875 C-6 10 -6 10 -8.375 11.0625 C-9.24125 11.371875 -10.1075 11.68125 -11 12 C-12.77277259 13.52007842 -12.77277259 13.52007842 -14 15 C-14.99 14.67 -15.98 14.34 -17 14 C-16.52054932 13.61142822 -16.04109863 13.22285645 -15.54711914 12.82250977 C-13.38510408 11.06975857 -11.2237935 9.31614086 -9.0625 7.5625 C-7.93038086 6.64500977 -7.93038086 6.64500977 -6.77539062 5.70898438 C-6.05673828 5.12568359 -5.33808594 4.54238281 -4.59765625 3.94140625 C-3.93258057 3.40201416 -3.26750488 2.86262207 -2.58227539 2.30688477 C-1.06012522 1.09175471 -1.06012522 1.09175471 0 0 Z " fill="#340B03" transform="translate(161,201)"/>
<path d="M0 0 C6.64692597 0.3625596 11.52470684 2.15411575 17 6 C17.33 6.66 17.66 7.32 18 8 C15.69 7.34 13.38 6.68 11 6 C11 5.34 11 4.68 11 4 C9.02 4 7.04 4 5 4 C5 3.34 5 2.68 5 2 C3.35 2 1.7 2 0 2 C0 1.34 0 0.68 0 0 Z " fill="#DFB63B" transform="translate(394,45)"/>
<path d="M0 0 C6.75 0.75 6.75 0.75 9 3 C11.09143803 7.06668506 11.17760064 10.47118371 11 15 C10.57847656 14.13568359 10.57847656 14.13568359 10.1484375 13.25390625 C6.29834752 5.58395632 6.29834752 5.58395632 0 0 Z " fill="#2C0902" transform="translate(189,43)"/>
<path d="M0 0 C-3.48865769 2.3257718 -7.03944811 3.45070844 -11 4.6875 C-12.08667969 5.04424805 -12.08667969 5.04424805 -13.1953125 5.40820312 C-18.63850409 7.12049864 -18.63850409 7.12049864 -22 6 C-15.00733278 2.18581788 -8.1119822 -0.52335369 0 0 Z " fill="#2E0901" transform="translate(74,27)"/>
<path d="M0 0 C7.92 0 15.84 0 24 0 C24.66 1.32 25.32 2.64 26 4 C25.04996094 3.68289062 24.09992188 3.36578125 23.12109375 3.0390625 C18.47408541 1.71134583 13.86973029 1.55047304 9.0625 1.375 C8.18787109 1.33632812 7.31324219 1.29765625 6.41210938 1.2578125 C4.27505369 1.1643893 2.13755706 1.08114602 0 1 C0 0.67 0 0.34 0 0 Z " fill="#DEB545" transform="translate(266,67)"/>
<path d="M0 0 C0.99 0 1.98 0 3 0 C3.53341607 6.26763879 1.8156571 10.44784083 -1 16 C-1.33 16.66 -1.66 17.32 -2 18 C-2.99 17.67 -3.98 17.34 -5 17 C-4.33291016 15.78763672 -4.33291016 15.78763672 -3.65234375 14.55078125 C-3.08644531 13.48214844 -2.52054688 12.41351563 -1.9375 11.3125 C-1.36902344 10.25675781 -0.80054688 9.20101562 -0.21484375 8.11328125 C1.08735791 4.77612779 1.08754852 3.34964944 0 0 Z " fill="#FCAE2C" transform="translate(153,97)"/>
<path d="M0 0 C-0.66 0.66 -1.32 1.32 -2 2 C-2 2.99 -2 3.98 -2 5 C-1.01 5.33 -0.02 5.66 1 6 C0.34 6.66 -0.32 7.32 -1 8 C-2.12588014 7.04270084 -3.2506715 6.08412105 -4.375 5.125 C-5.00148438 4.59132813 -5.62796875 4.05765625 -6.2734375 3.5078125 C-7.55836651 2.38567993 -8.79371975 1.20628025 -10 0 C-6.33694766 -0.74926071 -3.57644848 -1.2380014 0 0 Z " fill="#1F1802" transform="translate(316,51)"/>
<path d="M0 0 C0.33 0.66 0.66 1.32 1 2 C0.01 3.485 0.01 3.485 -1 5 C-1.38499891 6.65549531 -1.72793135 8.3222433 -2 10 C-2.639375 10.12375 -3.27875 10.2475 -3.9375 10.375 C-4.618125 10.58125 -5.29875 10.7875 -6 11 C-6.33 11.66 -6.66 12.32 -7 13 C-7.99 12.67 -8.98 12.34 -10 12 C-6.7 8.04 -3.4 4.08 0 0 Z " fill="#2C0C04" transform="translate(177,184)"/>
<path d="M0 0 C1 3 1 3 -0.125 5.5625 C-2.28393922 8.36912098 -3.58534271 9.16715676 -7 10 C-9.3125 9.625 -9.3125 9.625 -11 9 C-5.25 5 -5.25 5 -3 5 C-2.690625 4.360625 -2.38125 3.72125 -2.0625 3.0625 C-1 1 -1 1 0 0 Z " fill="#2A1C03" transform="translate(319,158)"/>
<path d="M0 0 C0.33 0 0.66 0 1 0 C0.38580424 12.0933028 0.38580424 12.0933028 -3 16 C-3.99 16.33 -4.98 16.66 -6 17 C-4.14506608 11.28062041 -2.06896109 5.64444725 0 0 Z " fill="#2A0B03" transform="translate(195,149)"/>
<path d="M0 0 C0.4125 0.639375 0.825 1.27875 1.25 1.9375 C3.00723864 4.41464576 3.00723864 4.41464576 7 5 C7.66 7.97 8.32 10.94 9 14 C4.46783481 10.85266306 2.38959582 7.86769519 0 3 C0 2.01 0 1.02 0 0 Z " fill="#E1B53D" transform="translate(343,150)"/>
<path d="M0 0 C4.38332057 0.82187261 8.67940177 1.90154282 13 3 C13 3.66 13 4.32 13 5 C13.804375 5.28875 14.60875 5.5775 15.4375 5.875 C18 7 18 7 19 9 C14.53202662 7.60121198 10.36177921 5.86369228 6.125 3.875 C4.97257812 3.33617188 3.82015625 2.79734375 2.6328125 2.2421875 C1.76398438 1.83226563 0.89515625 1.42234375 0 1 C0 0.67 0 0.34 0 0 Z " fill="#D9B23F" transform="translate(376,119)"/>
<path d="M0 0 C2.91517292 1.07401108 4.77810176 1.77810176 7 4 C5.35 5.32 3.7 6.64 2 8 C0.4375 6.25 0.4375 6.25 -1 4 C-0.6875 1.75 -0.6875 1.75 0 0 Z " fill="#C95124" transform="translate(159,194)"/>
<path d="M0 0 C-1 3 -1 3 -3.0625 4.1875 C-3.701875 4.455625 -4.34125 4.72375 -5 5 C-5 4.34 -5 3.68 -5 3 C-5.598125 3.350625 -6.19625 3.70125 -6.8125 4.0625 C-9 5 -9 5 -12 4 C-8.35616205 0.00912986 -5.26350451 -0.11696677 0 0 Z " fill="#1B1203" transform="translate(383,65)"/>
<path d="M0 0 C0.66 0.33 1.32 0.66 2 1 C0.71937515 2.7074998 -0.61767557 4.37373596 -2 6 C-2.66 6 -3.32 6 -4 6 C-4.66 7.65 -5.32 9.3 -6 11 C-6.66 11 -7.32 11 -8 11 C-7.1216227 6.43243804 -6.614517 4.47932326 -2.875 1.5625 C-1.92625 1.046875 -0.9775 0.53125 0 0 Z " fill="#C85228" transform="translate(24,45)"/>
<path d="M0 0 C0.33 0 0.66 0 1 0 C1.33 2.97 1.66 5.94 2 9 C-0.97 7.35 -3.94 5.7 -7 4 C-5.68 3.67 -4.36 3.34 -3 3 C-1.33289654 1.50014391 -1.33289654 1.50014391 0 0 Z " fill="#C85923" transform="translate(97,223)"/>
<path d="M0 0 C1.5778125 0.495 1.5778125 0.495 3.1875 1 C9.05298373 2.50071836 14.99092943 2.16488303 21 2 C17.46575288 4.35616475 15.81355898 4.2981228 11.625 4.3125 C9.94277344 4.33763672 9.94277344 4.33763672 8.2265625 4.36328125 C4.71756702 3.96820064 2.81828093 3.08468346 0 1 C0 0.67 0 0.34 0 0 Z " fill="#281900" transform="translate(372,150)"/>
<path d="M0 0 C1.89825285 0.42687983 3.79353183 0.86699482 5.6875 1.3125 C6.74324219 1.55613281 7.79898437 1.79976562 8.88671875 2.05078125 C11.97575628 2.99260825 14.31817964 4.22372937 17 6 C16.01 6.495 16.01 6.495 15 7 C13.32700041 6.34938905 11.66140763 5.67966676 10 5 C8.0075675 4.62406934 6.0081326 4.28020455 4 4 C4 3.34 4 2.68 4 2 C2.68 2 1.36 2 0 2 C0 1.34 0 0.68 0 0 Z " fill="#DCB33D" transform="translate(292,47)"/>
<path d="M0 0 C0.33 0 0.66 0 1 0 C1.13277344 0.68707031 1.26554687 1.37414062 1.40234375 2.08203125 C1.57894531 2.98308594 1.75554687 3.88414062 1.9375 4.8125 C2.19853516 6.15248047 2.19853516 6.15248047 2.46484375 7.51953125 C2.97741153 10.11397171 2.97741153 10.11397171 4 13 C3.01 13.495 3.01 13.495 2 14 C2 13.01 2 12.02 2 11 C1.01 11 0.02 11 -1 11 C-1.22174933 9.54364629 -1.42698698 8.08477044 -1.625 6.625 C-1.74101562 5.81289062 -1.85703125 5.00078125 -1.9765625 4.1640625 C-1.98429687 3.44992188 -1.99203125 2.73578125 -2 2 C-1.34 1.34 -0.68 0.68 0 0 Z " fill="#D5AA2E" transform="translate(365,134)"/>
<path d="M0 0 C2.33881007 2.12619097 3.94038762 3.99776492 5 7 C4.625 9.75 4.625 9.75 4 12 C0.46209597 8.30827405 0.40884117 4.90609405 0 0 Z " fill="#211401" transform="translate(394,68)"/>
<path d="M0 0 C0.33 0 0.66 0 1 0 C1.35133031 6.46708015 1.21265322 11.2886165 -2 17 C-2.99 17.66 -3.98 18.32 -5 19 C-4.67 17.68 -4.34 16.36 -4 15 C-3.34 15 -2.68 15 -2 15 C-2.020625 14.195625 -2.04125 13.39125 -2.0625 12.5625 C-2 10 -2 10 -1 9 C-0.76807135 7.48530552 -0.58784762 5.96245438 -0.4375 4.4375 C-0.35371094 3.61121094 -0.26992188 2.78492188 -0.18359375 1.93359375 C-0.12300781 1.29550781 -0.06242187 0.65742188 0 0 Z " fill="#2D1D02" transform="translate(299,129)"/>
<path d="M0 0 C0 3.10551666 -0.5393715 4.35261084 -2 7 C-1.34 7 -0.68 7 0 7 C0 7.66 0 8.32 0 9 C-5.75 7.25 -5.75 7.25 -8 5 C-4.04 2.525 -4.04 2.525 0 0 Z " fill="#2D1D02" transform="translate(313,101)"/>
<path d="M0 0 C8.54545455 1.15034965 8.54545455 1.15034965 11 2 C11.33 2.66 11.66 3.32 12 4 C12.99 4.33 13.98 4.66 15 5 C14.67 5.66 14.34 6.32 14 7 C9.38 5.02 4.76 3.04 0 1 C0 0.67 0 0.34 0 0 Z " fill="#2B1F02" transform="translate(385,95)"/>
<path d="M0 0 C3.3 0 6.6 0 10 0 C9.67 1.32 9.34 2.64 9 4 C9.66 4 10.32 4 11 4 C10.67 4.66 10.34 5.32 10 6 C6.7 4.35 3.4 2.7 0 1 C0 0.67 0 0.34 0 0 Z " fill="#241806" transform="translate(373,89)"/>
<path d="M0 0 C3.33193619 2.69728168 4.60371996 6.02060187 6 10 C5.6875 12.4375 5.6875 12.4375 5 14 C2.8480563 10.77208445 2.79913557 9.71599191 3 6 C2.34 6 1.68 6 1 6 C0.67 4.02 0.34 2.04 0 0 Z " fill="#DBAF3A" transform="translate(420,117)"/>
<path d="M0 0 C-0.33 0.99 -0.66 1.98 -1 3 C-2.98 3 -4.96 3 -7 3 C-7 3.66 -7 4.32 -7 5 C-8.98 5 -10.96 5 -13 5 C-9.32049748 1.76203778 -4.94759086 0 0 0 Z " fill="#E2B33D" transform="translate(373,44)"/>
<path d="M0 0 C-0.185625 0.94875 -0.37125 1.8975 -0.5625 2.875 C-1.28686632 5.89868793 -1.28686632 5.89868793 0 8 C-3.16115776 6.63016497 -3.9927092 6.0109362 -6 3 C-3.375 0 -3.375 0 0 0 Z " fill="#CD5523" transform="translate(60,198)"/>
<path d="M0 0 C0.66 0.33 1.32 0.66 2 1 C-0.97 4.3 -3.94 7.6 -7 11 C-7.33 10.01 -7.66 9.02 -8 8 C-6.85546875 6.2109375 -6.85546875 6.2109375 -5.1875 4.375 C-4.64480469 3.76398438 -4.10210937 3.15296875 -3.54296875 2.5234375 C-2 1 -2 1 0 0 Z " fill="#FCAC2F" transform="translate(120,155)"/>
<path d="M0 0 C1.68156755 2.52235132 3.16468006 5.03586642 4.625 7.6875 C5.07101562 8.49574219 5.51703125 9.30398437 5.9765625 10.13671875 C6.31429688 10.75160156 6.65203125 11.36648437 7 12 C6.01 12.495 6.01 12.495 5 13 C0.87010523 8.73688282 0.38728235 5.71241466 0 0 Z " fill="#271801" transform="translate(343,92)"/>
<path d="M0 0 C2.69435467 2.30838651 3.5677981 4.11185835 4.3125 7.5625 C4.49425781 8.34753906 4.67601562 9.13257812 4.86328125 9.94140625 C4.90839844 10.62074219 4.95351563 11.30007812 5 12 C4.34 12.66 3.68 13.32 3 14 C0.88838269 4.58997722 0.88838269 4.58997722 0 0 Z " fill="#D5B038" transform="translate(317,62)"/>
<path d="M0 0 C1.75091019 0.08754551 3.50079551 0.19573373 5.25 0.3125 C6.22453125 0.37050781 7.1990625 0.42851562 8.203125 0.48828125 C11.25341611 1.04636524 12.70711276 1.96369776 15 4 C9.72684667 3.5547115 4.98229776 2.91626837 0 1 C0 0.67 0 0.34 0 0 Z " fill="#280902" transform="translate(119,20)"/>
<path d="M0 0 C3.16717283 1.58358642 4.73268318 2.45263699 6.3125 5.6875 C6.539375 6.450625 6.76625 7.21375 7 8 C5.68 8.33 4.36 8.66 3 9 C2.67 6.69 2.34 4.38 2 2 C1.01 1.67 0.02 1.34 -1 1 C-0.67 0.67 -0.34 0.34 0 0 Z " fill="#2A1B04" transform="translate(392,127)"/>
<path d="M0 0 C2.625 -0.1875 2.625 -0.1875 5 0 C3.02 2.31 1.04 4.62 -1 7 C-1.33 5.68 -1.66 4.36 -2 3 C-1.34 2.01 -0.68 1.02 0 0 Z " fill="#D1580F" transform="translate(77,131)"/>
<path d="M0 0 C0 0.66 0 1.32 0 2 C-3.96 3.98 -3.96 3.98 -8 6 C-8 4.68 -8 3.36 -8 2 C-4.77208445 -0.1519437 -3.71599191 -0.20086443 0 0 Z " fill="#220704" transform="translate(29,40)"/>
<path d="M0 0 C-0.33 0.99 -0.66 1.98 -1 3 C-4.63 3.33 -8.26 3.66 -12 4 C-7.82050327 1.21366885 -5.06624674 0 0 0 Z " fill="#BF542D" transform="translate(93,22)"/>
<path d="M0 0 C0.66 0.33 1.32 0.66 2 1 C1.360625 1.433125 0.72125 1.86625 0.0625 2.3125 C-2.26746003 3.91239177 -2.26746003 3.91239177 -3 7 C-3.99 7.66 -4.98 8.32 -6 9 C-6.99 8.67 -7.98 8.34 -9 8 C-6.14723863 5.06799526 -3.34920216 2.35684596 0 0 Z " fill="#1C0604" transform="translate(142,216)"/>
<path d="M0 0 C3.74281699 2.38179263 6.97727468 4.74475735 10 8 C7.625 7.75 7.625 7.75 5 7 C3.875 5 3.875 5 3 3 C2.01 2.67 1.02 2.34 0 2 C0 1.34 0 0.68 0 0 Z " fill="#2F0901" transform="translate(56,204)"/>
<path d="M0 0 C1.32 0 2.64 0 4 0 C4.12375 0.639375 4.2475 1.27875 4.375 1.9375 C4.684375 2.9584375 4.684375 2.9584375 5 4 C5.66 4.33 6.32 4.66 7 5 C7 5.66 7 6.32 7 7 C7.66 7 8.32 7 9 7 C8.67 7.66 8.34 8.32 8 9 C1.42857143 3.85714286 1.42857143 3.85714286 0 0 Z " fill="#BE552F" transform="translate(45,192)"/>
<path d="M0 0 C0.66 0.33 1.32 0.66 2 1 C0.87895467 2.31587941 -0.24696965 3.62760353 -1.375 4.9375 C-2.00148438 5.66839844 -2.62796875 6.39929688 -3.2734375 7.15234375 C-5 9 -5 9 -7 10 C-6.52727227 5.74545047 -4.03562624 3.80795427 -1 1 C-0.67 0.67 -0.34 0.34 0 0 Z " fill="#CE5C0A" transform="translate(126,135)"/>
<path d="M0 0 C0.33 0 0.66 0 1 0 C1.36809816 4.5398773 1.36809816 4.5398773 -0.25 6.5625 C-0.8275 7.036875 -1.405 7.51125 -2 8 C-2.721875 8.721875 -3.44375 9.44375 -4.1875 10.1875 C-5.0846875 11.0846875 -5.0846875 11.0846875 -6 12 C-4.43358249 7.69235185 -2.31663844 3.93828536 0 0 Z " fill="#2F0C03" transform="translate(188,167)"/>
<path d="M0 0 C0.99 0 1.98 0 3 0 C3 3.3 3 6.6 3 10 C2.67 10 2.34 10 2 10 C1.87625 9.195625 1.7525 8.39125 1.625 7.5625 C1.315625 6.2940625 1.315625 6.2940625 1 5 C0.34 4.67 -0.32 4.34 -1 4 C-0.67 2.68 -0.34 1.36 0 0 Z " fill="#191003" transform="translate(397,135)"/>
<path d="M0 0 C0.66 0.33 1.32 0.66 2 1 C0.25 5.875 0.25 5.875 -2 7 C-2.66 5.35 -3.32 3.7 -4 2 C-2.68 2 -1.36 2 0 2 C0 1.34 0 0.68 0 0 Z " fill="#F3B91C" transform="translate(140,126)"/>
<path d="M0 0 C5.35048061 0.37328935 7.50912907 1.9957657 11 6 C6.14922412 4.88059018 3.222107 3.8665284 0 0 Z " fill="#271902" transform="translate(286,118)"/>
<path d="M0 0 C0.99 0.33 1.98 0.66 3 1 C1.35 4.3 -0.3 7.6 -2 11 C-2.33 11 -2.66 11 -3 11 C-3 8.69 -3 6.38 -3 4 C-2.34 3.67 -1.68 3.34 -1 3 C-0.67 2.01 -0.34 1.02 0 0 Z " fill="#231500" transform="translate(346,57)"/>
<path d="M0 0 C0.99 0 1.98 0 3 0 C3 0.66 3 1.32 3 2 C4.32 1.67 5.64 1.34 7 1 C6.67 2.98 6.34 4.96 6 7 C1.125 2.25 1.125 2.25 0 0 Z " fill="#1F1402" transform="translate(416,111)"/>
<path d="M0 0 C0.33 0.66 0.66 1.32 1 2 C3.02463255 2.65213292 3.02463255 2.65213292 5 3 C-0.75 6 -0.75 6 -3 6 C-2.67 5.01 -2.34 4.02 -2 3 C-1.34 3 -0.68 3 0 3 C0 2.01 0 1.02 0 0 Z " fill="#E0B131" transform="translate(307,100)"/>
<path d="M0 0 C0.66 0.66 1.32 1.32 2 2 C1.875 4.4375 1.875 4.4375 1 7 C-1.0625 8.8125 -1.0625 8.8125 -3 10 C-2.67 8.02 -2.34 6.04 -2 4 C-1.01 4.33 -0.02 4.66 1 5 C0.34 3.68 -0.32 2.36 -1 1 C-0.67 0.67 -0.34 0.34 0 0 Z " fill="#DFB334" transform="translate(315,92)"/>
<path d="M0 0 C2.7972908 2.06756277 3.02692273 3.14440371 3.6875 6.6875 C3.790625 7.780625 3.89375 8.87375 4 10 C3.34 10 2.68 10 2 10 C0.68373308 6.38026598 0 3.90432869 0 0 Z " fill="#DCB13C" transform="translate(419,61)"/>
<path d="M0 0 C4.51478398 0.53115106 7.34666857 2.36620292 11 5 C8 6 8 6 5.8125 5.0625 C5.214375 4.711875 4.61625 4.36125 4 4 C4 3.34 4 2.68 4 2 C2.68 1.34 1.36 0.68 0 0 Z " fill="#C0592F" transform="translate(184,42)"/>
<path d="M0 0 C2.31 0.33 4.62 0.66 7 1 C7 2.32 7 3.64 7 5 C2.25 3.125 2.25 3.125 0 2 C0 1.34 0 0.68 0 0 Z " fill="#C7582E" transform="translate(79,219)"/>
<path d="M0 0 C0.99 0.99 1.98 1.98 3 3 C1.25 7.875 1.25 7.875 -1 9 C-1.09765625 2.84765625 -1.09765625 2.84765625 -1 1 C-0.67 0.67 -0.34 0.34 0 0 Z " fill="#E4B432" transform="translate(319,150)"/>
<path d="M0 0 C1.485 0.99 1.485 0.99 3 2 C3.29296875 4.1640625 3.29296875 4.1640625 3.1875 6.625 C3.16042969 7.44226563 3.13335937 8.25953125 3.10546875 9.1015625 C3.07066406 9.72804687 3.03585937 10.35453125 3 11 C0.43383368 7.15075052 0.44902324 4.5650696 0 0 Z " fill="#E3B83E" transform="translate(340,139)"/>
<path d="M0 0 C3.16115776 1.36983503 3.9927092 1.9890638 6 5 C4.35 5.66 2.7 6.32 1 7 C0.67 4.69 0.34 2.38 0 0 Z " fill="#E8B736" transform="translate(309,54)"/>
<path d="M0 0 C0.66 1.32 1.32 2.64 2 4 C0.03533587 5.06775224 -1.96855359 6.06553465 -4 7 C-4.66 6.67 -5.32 6.34 -6 6 C-4.02 4.02 -2.04 2.04 0 0 Z " fill="#EABC3D" transform="translate(354,52)"/>
<path d="M0 0 C0.66 1.32 1.32 2.64 2 4 C-1.01031744 4.93423645 -1.86650268 5.04449911 -5 4 C-4.34 4 -3.68 4 -3 4 C-3 3.01 -3 2.02 -3 1 C-2.01 0.67 -1.02 0.34 0 0 Z " fill="#CC5121" transform="translate(80,25)"/>
<path d="M0 0 C0.66 1.32 1.32 2.64 2 4 C-0.3431213 3.74438677 -2.67843403 3.40729228 -5 3 C-5.33 2.34 -5.66 1.68 -6 1 C-4.02 0.67 -2.04 0.34 0 0 Z " fill="#E7BB3C" transform="translate(105,230)"/>
<path d="M0 0 C1.32 0.99 2.64 1.98 4 3 C3.25 8.75 3.25 8.75 1 11 C1.020625 9.9275 1.04125 8.855 1.0625 7.75 C1.0142016 4.85209576 0.86844115 2.71387859 0 0 Z " fill="#D1650D" transform="translate(151,96)"/>
<path d="M0 0 C0.66 0 1.32 0 2 0 C2.33 2.64 2.66 5.28 3 8 C2.34 8 1.68 8 1 8 C0.67 5.36 0.34 2.72 0 0 Z " fill="#CAA22E" transform="translate(342,84)"/>
<path d="M0 0 C3.36720387 1.39332574 4.9859524 2.9789286 7 6 C6.67 6.66 6.34 7.32 6 8 C4.99403703 7.0479279 3.99538437 6.08812654 3 5.125 C2.443125 4.59132813 1.88625 4.05765625 1.3125 3.5078125 C0 2 0 2 0 0 Z " fill="#CFAD3D" transform="translate(412,53)"/>
<path d="M0 0 C3.37462715 0.54723683 5.08235 1.0549 8 3 C8 3.66 8 4.32 8 5 C4.5625 4.1875 4.5625 4.1875 1 3 C0.67 2.01 0.34 1.02 0 0 Z " fill="#221604" transform="translate(353,167)"/>
<path d="M0 0 C0.33 0.99 0.66 1.98 1 3 C0.67 3.66 0.34 4.32 0 5 C-0.66 5 -1.32 5 -2 5 C-2 5.66 -2 6.32 -2 7 C-3.32 6.67 -4.64 6.34 -6 6 C-4 4 -2 2 0 0 Z " fill="#271902" transform="translate(421,159)"/>
<path d="M0 0 C0.33 0 0.66 0 1 0 C1.125 6.75 1.125 6.75 0 9 C-0.66 9 -1.32 9 -2 9 C-1.34 6.03 -0.68 3.06 0 0 Z " fill="#291B03" transform="translate(427,142)"/>
<path d="M0 0 C1 3 1 3 0 6 C-0.99 6 -1.98 6 -3 6 C-3.33 4.68 -3.66 3.36 -4 2 C-2.68 2 -1.36 2 0 2 C0 1.34 0 0.68 0 0 Z " fill="#FCB12E" transform="translate(161,105)"/>
</svg>
